<?xml version="1.0" encoding="UTF-8" standalone="no"?>
<svg
   xmlns:dc="http://purl.org/dc/elements/1.1/"
   xmlns:cc="http://creativecommons.org/ns#"
   xmlns:rdf="http://www.w3.org/1999/02/22-rdf-syntax-ns#"
   xmlns:svg="http://www.w3.org/2000/svg"
   xmlns="http://www.w3.org/2000/svg"
   viewBox="0 0 564.59998 793.1333"
   height="793.1333"
   width="564.59998"
   xml:space="preserve"
   id="svg2"
   version="1.1"><metadata
     id="metadata8"><rdf:RDF><cc:Work
         rdf:about=""><dc:format>image/svg+xml</dc:format><dc:type
           rdf:resource="http://purl.org/dc/dcmitype/StillImage" /></cc:Work></rdf:RDF></metadata><defs
     id="defs6" /><g
     transform="matrix(1.3333333,0,0,-1.3333333,0,793.13333)"
     id="g10"><g
       transform="scale(0.1)"
       id="g12"><path
         id="path14"
         style="fill:#fcdbc0;fill-opacity:1;fill-rule:nonzero;stroke:none"
         d="m 1113.58,4222.71 c -192.088,53.4 -196.396,-279.12 -83.33,-364.59 35.86,-27.11 76.43,-18.52 117.22,-8.32 38.9,-137.44 141.08,-283.45 264.8,-354.15 34.9,-19.94 68.42,-41.38 107.59,-52.79 -1.27,-48.78 34.98,-101.45 46.82,-149 13.07,-52.42 21.11,-105.38 34.94,-156.82 161.49,-9.23 319.05,-63.1 482.39,-53.65 19.91,48.93 35.15,100.57 54.02,150.08 15.59,40.86 44.65,98.23 29.13,141.14 -19.04,52.67 -64.43,96.93 -80.86,153.45 42.7,44.63 77.79,77.96 105.72,134.4 27.91,56.4 49.66,113.38 67.82,173.37 10.65,35.2 8.67,76.8 20.51,108.87 150.8,-32.4 230.27,213.91 140.04,310.89 -27.5,29.56 -61.83,35.58 -100.8,32.75 -10.93,163.87 -21.61,331.96 -87.89,484.54 -57.27,131.85 -153.04,254.73 -272.91,335.23 -127.13,85.37 -278.08,101.68 -417.78,36.12 -142.47,-66.85 -252.34,-195.52 -317.05,-336.9 -63.77,-139.3 -83.62,-292.88 -100.41,-443.67 -2.09,-18.83 -4.11,-37.68 -6.13,-56.51 l -3.84,-84.44" /><path
         id="path16"
         style="fill:#e7b798;fill-opacity:1;fill-rule:nonzero;stroke:none"
         d="m 2287.35,4261.48 c 2.19,31.96 12.31,101.08 0.13,127.4 -11.25,24.31 -51.44,44.31 -78.63,58.5 23.74,-11.52 67.01,-27.44 82.32,-24.71 9.83,123.99 -13.55,257.13 -68.28,368.15 -47.44,96.23 -108.38,210.04 -198.57,273.17 -45.09,31.57 -102.62,54.96 -143.07,91.43 l -76.77,23.03 c 137.57,-73.43 259.41,-202.92 191.11,-368.34 -17.6,-42.64 -46.94,-57.76 -91.02,-66.25 151.29,-13.81 270.91,-175.31 148.44,-309.44 -46.43,-50.85 -143.67,-81.72 -207.5,-49.27 -68.55,34.84 -69.08,140.95 -165.87,116.8 -89.25,-22.26 -96.62,-118.73 -134.72,-187.5 51.59,25.62 122.34,32.74 179.28,31.62 65.2,-1.27 86.32,-42.48 140.87,-65.13 57.38,-23.83 119.65,-1.76 164.78,36.77 16.77,14.31 33.85,49.65 52.14,59.27 25.18,13.24 47.51,-2.85 71.53,-14.62 10.49,-5.13 19.93,-10.74 28.98,-16.54 2.42,-10.18 4.88,-20.34 7.2,-30.54 31.8,-139.52 45.26,-281.78 7.26,-421.71 -35.73,-131.57 -114.23,-242.88 -238.46,-303.33 -119.79,-58.28 -273.07,-82.88 -403.85,-53.33 -149.69,33.83 -252.19,154.44 -310.81,290.64 -57.94,134.62 -64.34,272.28 -49.31,414.65 19.27,14.24 39.5,26.84 61.13,35.26 59.41,23.1 109.91,-16.29 167.68,-1.03 -137.5,-4.54 -166.81,211.78 -87.52,290.95 -42.16,-4.79 -68.96,20.54 -84.7,57.52 -63.75,149.8 100.1,322.89 173.37,438.4 l -57.58,-61.41 c -40,-24.56 -80.72,-95.68 -106.05,-135.66 -122.71,-193.56 -165.06,-438.46 -133.31,-661.91 -16.51,-38.53 -24.23,-83.04 -15.55,-116.65 -13.86,28.61 -37.46,45.99 -78.55,29.1 -65.731,-27 -24.18,-128.3 7.27,-167.28 27.53,-34.12 61.33,-42.52 103.57,-33.85 l -4,22.63 c 16.02,-26.71 15.98,-59.28 25.59,-92.54 22.34,-77.26 53.81,-168.48 101.38,-233.8 54.73,-75.14 135.2,-102.23 209.6,-150.22 38.59,-24.89 38.32,-52.21 57.38,-90.38 22.54,-45.11 58.31,-44.58 104.59,-47.4 85.3,-5.2 177.11,-8.23 260.84,11.54 16.19,-33.97 49.88,-118.15 11.73,-147.48 102.22,28.63 122.09,78.92 150.55,176.23 21.48,73.49 19.37,155.35 66.71,215.58 47.31,60.22 88.33,138.77 116.84,210.14 60.14,150.52 41.44,316.4 38.46,474.26 1.15,-0.9 2.22,-1.81 3.39,-2.72 z M 1120.68,4066.09 c -0.14,-0.08 -0.3,-0.12 -0.44,-0.2 -0.28,0.95 -0.56,1.9 -0.85,2.84 0.47,-0.85 0.79,-1.82 1.29,-2.64" /><path
         id="path18"
         style="fill:#ffffff;fill-opacity:1;fill-rule:nonzero;stroke:none"
         d="m 1474.39,3927.15 c 32.01,-25.99 71.77,-72.85 107.16,-90.85 41.15,-20.91 103.03,6.92 144.33,17.58 52.52,13.54 95.15,31.33 143.53,55.16 39,19.21 92.36,30.55 124.94,60.59 38.09,35.12 43.06,106.85 40.71,155.67 -129.81,-89.32 -267.18,-122.5 -412.69,-167.57 -29.24,-9.06 -98.71,-9.41 -117.28,-22.89 l -30.7,-7.69" /><path
         id="path20"
         style="fill:#fcdbc0;fill-opacity:1;fill-rule:nonzero;stroke:none"
         d="m 468.738,2011.82 c -55.722,-13.16 -105.578,-28.99 -159.297,0.07 -48.89,26.45 -79.168,62.82 -109.281,107.88 -89.105,-79.33 -1.582,-173.85 44.227,-242.28 -34.746,-83.43 -106.926,-104.28 -180.8011,-141.51 -38.625,-19.46 -70.34762,-54.07 -26.4961,-89.21 40.1211,-32.16 92.8942,-12.93 132.0902,8.58 41.777,22.94 82.879,49.04 122.23,75.89 -7.703,-67.3 -36.18,-116.81 -77.812,-169.06 -28.43,-35.7 -101.602,-132 -10.953,-144.49 36.402,-5.01 73.863,23.08 97.484,47.66 -27.031,-81.98 67.601,-69.41 110.363,-33.77 40.504,33.77 72.406,89.26 88.856,139.31 1.851,-46.62 7.605,-91.87 8.211,-138.52 0.617,-47.55 28.875,-76.69 66.039,-28.01 46.289,60.63 39.992,181.06 42.519,252.83 1.735,49.33 -21.742,100.66 20.172,138.83 -38.223,15.97 -64.922,52.09 -94.18,80.14 -13.109,12.57 -26.117,25.11 -38.839,37.82 -8.032,8.03 -37.184,40.81 -30.692,28.75 l -3.84,69.09" /><path
         id="path22"
         style="fill:#fcdbc0;fill-opacity:1;fill-rule:nonzero;stroke:none"
         d="m 3355.16,3911.8 c 41.93,52.25 73.07,107.16 102.15,167.3 30.6,63.29 33.12,112.6 45.06,180.34 12.39,70.33 69.92,92.81 123,130.2 24.05,16.94 45.79,34.92 63.81,58.36 13.13,17.1 27.59,59.43 49.51,66.9 71.41,24.36 41.21,-115.76 16.13,-144.79 87.25,54.18 133.52,-45.84 73.81,-109.21 72.29,14.61 58.23,-106.21 26.84,-138.16 53.79,23.35 61.86,-77.08 6.66,-96.75 88.71,-40.67 -95.92,-154.56 -129.72,-163.14 -19.52,-4.96 -50.25,1.41 -66.28,-8.91 -14.58,-9.38 -15.63,-35.33 -33.67,-44.1 -37.8,-18.39 -91.66,19.75 -126.42,5.38 -26.77,-11.06 -57.65,-83.33 -77.1,-106.56 -6.57,39.26 -41.69,109.59 -54.58,130.21 l -19.2,72.93" /><path
         id="path24"
         style="fill:#e7b798;fill-opacity:1;fill-rule:nonzero;stroke:none"
         d="m 3420.41,3800.49 c 14.44,19.37 35.78,54.47 58.34,76.19 30.64,-15.7 135.26,-52.96 150.64,2.4 14.34,51.64 -88.44,65.72 -119.35,63.24 49.46,38.89 72.03,108.72 63.92,167.09 -4.93,35.55 -11.03,53.6 6.78,87.68 12.41,23.79 34.82,40.22 45.32,64.56 -19.75,-31.05 -17.49,-72.09 23.92,-79.57 30.56,-5.52 66.08,21.36 88.92,38.8 41.59,31.77 126.65,98.7 78.19,155.53 61.17,-14.09 35.18,-92.31 8.07,-127.64 -24.98,-32.54 -72.41,-54.12 -108.87,-71.11 -30.9,-14.39 -120.91,-43.48 -77.81,-93.05 36.83,-42.34 101.2,11.34 134.4,30.96 53.01,31.32 87.25,55.51 89.62,122.01 85.88,-66.37 -61.73,-158.33 -112.52,-182.62 -23.69,-11.32 -112.73,-34.45 -82.55,-75.83 26.43,-36.25 100.95,15.46 126.23,29.67 44.2,24.85 74.5,48.54 98.02,94.43 22.03,-48.6 -43.85,-93.11 -74.57,-118.68 14.72,0.08 29.6,0.38 44.14,-0.4 11.76,-79.56 -116.73,-131.25 -179.26,-126.65 -12.05,-63.23 -70.64,-62.3 -126.86,-57.11 -35.3,3.27 -43.23,11.54 -70.34,-22.5 -15.18,-19.07 -24.99,-41.98 -41.35,-60.59 -6.7,11.26 -14.73,32.48 -19.19,37.13 l -3.84,46.06" /><path
         id="path26"
         style="fill:#e7b798;fill-opacity:1;fill-rule:nonzero;stroke:none"
         d="m 73.3945,1735.47 c -19.0312,-20.37 -39.039,-51.79 -3.1015,-66.67 25.2539,-10.46 61.941,13.08 83.594,24.3 26.136,13.54 54.097,29.16 78.285,45.81 24.769,17.05 42.57,48.13 72.359,56.54 54.723,-75.34 -227.1794,-217.39 -290.8357,-142.02 -28.168,33.35 -6.37108,66 32.8281,70.53 l 26.8711,11.51" /><path
         id="path28"
         style="fill:#e7b798;fill-opacity:1;fill-rule:nonzero;stroke:none"
         d="m 173.188,2057.89 c -1.032,-33.16 15.167,-79.61 39.656,-103.03 27.687,-26.46 51.554,-15.06 83.312,-27.25 33.332,-12.81 34.942,-47.4 66.418,-67.93 34.281,-22.36 62.649,-13.31 98.477,-1.01 26.859,-30.67 44.105,-72.21 79.277,-97.37 -68.512,-11.62 -136.871,-16.13 -193.183,30.67 -49.262,40.97 -88.61,81.24 -133.391,127.53 -28.125,29.09 -49.156,46.73 -44.402,92.32 l 3.836,46.07" /><path
         id="path30"
         style="fill:#e7b798;fill-opacity:1;fill-rule:nonzero;stroke:none"
         d="m 184.707,1516.68 c -26.758,-93.14 73.609,-40.92 102.973,-2.64 40.457,52.73 57.199,115.63 74.258,178.54 99.41,-21.29 33.101,-103.87 1.582,-162.72 -10.922,-20.39 -49.688,-75.3 -2.153,-80.7 30.43,-3.46 58.258,56.45 71.207,77.24 22.598,36.27 27.617,72.47 40.656,112.43 19.606,-3.29 40.903,-3.32 60.27,-11.7 -5.102,-27.06 -23.82,-201.13 18.332,-199.09 57.563,2.78 17.606,179.9 12.172,209.11 -7.254,38.96 -9.082,74.25 1.348,112.99 94.742,-13.71 71.718,-175.24 50.707,-242.75 -10.782,-34.62 -17.879,-86.23 -40.567,-114.95 -27.734,-35.12 -70.512,-34.46 -79.492,12.53 -9.359,48.94 14.945,104.17 7.285,156.22 -25.762,-48.33 -57.418,-93.89 -97.191,-131.73 -54.274,-51.63 -133.621,-48.3 -101.375,44.52 1.515,1.33 1.59,1.25 0.207,-0.22 -18.774,-28.67 -72.469,-60.01 -108.113,-53.56 -32.067,5.8 -60.559,58 -27.461,81.13 l 15.355,15.35" /><path
         id="path32"
         style="fill:#dbe8f7;fill-opacity:1;fill-rule:nonzero;stroke:none"
         d="m 399.223,2020.29 c -42.211,-92.14 135.851,-265.62 217.316,-290.8 49.051,24.53 83.539,70 131.586,93.3 -1.578,4.53 -1.777,12.44 -3.297,17.03 104.496,44.21 176.324,149.54 278.392,197.58 -21.91,-118.77 -63.704,-270.64 37.37,-364.67 174.25,-162.12 517.79,-155.74 735.7,-149.09 168.61,5.14 338.02,25.51 502.01,65.62 99.9,24.43 213.36,53.79 296.4,117.97 97.85,75.66 87.32,202.81 94.93,314.74 9.71,143.06 4.66,280.82 -6.58,423.53 -9.52,120.95 -2.98,230.76 84.65,322.39 91.13,95.29 198.84,167.63 280.96,272.95 73.06,93.69 126.12,201.46 203.43,291.9 66.85,78.19 251.17,284.45 251.17,284.45 0,0 -64.96,157.72 -93.8,244.29 -9.93,29.81 -19.4,59.77 -28.82,89.75 -112.04,-182.46 -265.98,-315.57 -420.21,-461.25 -136.75,-129.2 -410.29,-309.74 -606.15,-223.27 -102.08,45.07 -193.22,136.42 -267.57,217.59 -10.22,-92.54 -39.32,-251.58 -130.62,-296.76 -33.2,-16.43 -112.23,-58.49 -148.24,-49.1 -22.37,5.83 -37.2,33.23 -56.36,45.24 -22.6,14.16 -49.79,18.04 -72.66,31.92 -47.95,29.09 -100.55,72.26 -144.53,107.97 -29.04,-25.46 -36.58,-71.76 -39.8,-107.36 -69.34,23.56 -185.57,-163.82 -222.77,-214.14 -62.46,-84.48 -121.82,-175.16 -179.87,-262.9 C 971.508,2557.26 846,2388.09 704.066,2223.44 c -36.957,-42.86 -81.746,-73.13 -129.781,-104.2 -45.738,-29.59 -102.41,-77.28 -146.719,-89.49 l -28.343,-9.46" /><path
         id="path34"
         style="fill:#a9c5e0;fill-opacity:1;fill-rule:nonzero;stroke:none"
         d="m 484.262,1831.31 c 48.582,-38.91 126.496,1.64 165.187,37.97 58.367,54.8 -26.484,86.49 -38.883,150.43 -1.812,1.63 -1.933,1.54 -0.371,-0.28 39.301,-31.72 71.66,-55 119.18,-31.38 41.484,20.61 80.668,57.61 115.516,87.39 88.672,75.76 113.086,152.62 163.199,254.42 17.2,34.93 47.24,116.45 89.67,124.36 2.28,-35.73 -1.63,-72.93 -8.98,-106.26 35.77,46.47 61.07,117.59 122,139.49 5.83,-64.41 -37.17,-132.28 -56.25,-192.51 -21.71,-68.48 -43.56,-137.08 -54.73,-208.28 -20.4,-129.82 26.21,-240.81 110.38,-338.75 41.42,-48.21 89.45,-91.39 137.27,-133.11 -95.89,-1.73 -184.13,23.05 -277.88,39.7 -61.21,10.86 -53.28,31.14 -55.21,89.68 -1.58,47.56 -4.27,94.55 -5.02,142.18 -0.82,51.23 -1.56,100.94 0.63,152.23 1.85,1.64 1.93,1.56 0.24,-0.25 -49.366,-38.95 -88.917,-84.73 -142.183,-118.5 -41.765,-26.48 -96,-46.54 -129.109,-83.82 2.937,-4.63 5.07,-9.71 7.914,-14.28 -77.816,-73.81 -135.797,-99.48 -220.047,-32.95 l -42.523,42.52" /><path
         id="path36"
         style="fill:#a9c5e0;fill-opacity:1;fill-rule:nonzero;stroke:none"
         d="m 1542.57,3328.99 c -28.84,-49.75 -23.72,-123.6 -23.61,-184.94 35.74,108.75 184.2,74.71 210.23,-23.37 6.73,16.76 22.45,28.65 38.26,33.52 -60.75,45.75 -156.9,97.78 -201.26,155.9 l -23.62,18.89" /><path
         id="path38"
         style="fill:#a9c5e0;fill-opacity:1;fill-rule:nonzero;stroke:none"
         d="m 2090.61,3456.56 c -12.94,-79.03 -41.45,-169.77 -89.19,-235.16 23.21,-11.94 38.27,-35.61 56.35,-51.38 -0.2,28.93 10.78,149.92 46.1,159.9 38.9,10.99 78.81,-81.72 90.93,-107.92 7.48,74.86 -19.37,233.56 -99.46,262.91 l -4.73,-28.35" /><path
         id="path40"
         style="fill:#a9c5e0;fill-opacity:1;fill-rule:nonzero;stroke:none"
         d="m 2420.05,1671.28 c 0.05,0.21 0.07,0.43 0.12,0.65 -0.12,-0.13 -0.24,-0.26 -0.36,-0.39 -1.69,-1.82 -1.61,-1.91 0.24,-0.26" /><path
         id="path42"
         style="fill:#a9c5e0;fill-opacity:1;fill-rule:nonzero;stroke:none"
         d="m 3471.37,3678.13 c -13.42,-34.45 -48.83,-93.58 -86.46,-106.27 -44.03,-14.85 -55.08,45.71 -80.55,81.21 17.16,-94.43 7.86,-160.42 -50.69,-237.81 -101.63,-134.34 -224.84,-271.73 -347.46,-386.94 -55.25,-51.92 -133.55,-145.02 -211.13,-161.46 -76.76,-16.27 -112.8,75.62 -160.58,120.31 5.46,-76.87 47.42,-163.07 63.49,-240.07 19.87,-95.15 141.66,-842.15 -58.54,-802.4 l -42.52,18.91 c -23.31,-6.59 -43.22,-0.19 -61.07,13.29 -67.79,89.21 -115,200.78 -149.02,298.22 -61.93,177.4 -137.15,354.46 -194.2,532.98 -13.1,41 -41.43,108.22 -28.05,151.06 16.71,53.55 65.31,42.93 100.9,11.5 -23.68,39.52 -98.91,146.16 -98.5,169.36 l -14.17,-18.9 c -43.68,-77.53 21.03,-213.72 -43.11,-278.76 52.74,-53.34 72.01,-146.96 96.11,-215.23 26.37,-74.68 60.93,-152.08 91.63,-224.42 66.16,-155.92 121.13,-308.79 176.81,-467.11 31.99,-90.93 65.57,-167.98 45.91,-263.67 48.58,53 106.14,108.6 162.4,153.46 45.2,12.84 84.57,44.38 101.94,90.68 33.44,89.1 6.35,202.64 14.73,296.32 9.12,101.68 19.23,191.96 -3.64,292.92 -19.44,85.86 -42.15,160.58 26.99,229.3 59.68,59.32 131.36,102.53 188.99,165.31 114.02,124.26 233.15,259.85 331.91,396.44 49.47,68.44 81.69,135.36 147.59,191 66.48,56.12 121.09,99.77 80.29,190.77" /><path
         id="path44"
         style="fill:#333333;fill-opacity:1;fill-rule:nonzero;stroke:none"
         d="m 1006.02,1761.36 c -20.79,-103.47 5.36,-228.27 28.28,-329.61 23.22,-102.61 72.92,-199.74 89.21,-302.97 16.42,-104.1 -3.7,-209.952 -11.33,-314.139 -7.51,-102.512 -14.6,-209.434 -38.22,-309.727 -13.42,-57.016 -35.56,-104.445 -62.03,-155.676 -19.664,-38.047 -55.946,-88.547 -59.528,-131.23 112.548,10.031 231.388,-82.703 336.648,-104.414 35.75,150.215 78.65,295.109 148.41,433.437 63.48,125.918 134.68,264.192 236.45,363.762 107.24,104.917 247.93,120.987 380.75,53.27 144.73,-73.79 243.19,-211.79 312.96,-354.305 65.55,-133.879 120.01,-272.59 187.5,-405.676 8.27,-16.316 16.6,-32.586 24.94,-48.867 24.4,17.683 38.47,37.492 65.69,49.68 28.1,12.578 54.89,13.828 85.52,20.898 58.97,13.609 120.52,44.129 180.2,45.516 -105.03,185.703 -170.69,414.023 -205.96,623.972 -37.17,221.349 -22.1,441.199 -9.13,663.419 3.46,59.22 -3.06,118.66 -2.95,177.66 0.11,57.96 11.87,121.11 -5.73,177.94 -75.32,-79.67 -164.65,-114.53 -267.32,-144.33 -114.2,-33.15 -226.71,-75.11 -341.58,-105.45 -58.75,-15.5 -119.43,-23.83 -178.62,-37.67 -60.57,-14.18 -109.92,-4.91 -170.47,-4.3 -58.68,0.59 -111.3,-15.06 -170.72,-7.44 -59.29,7.6 -119.36,4.84 -178.31,14.33 -120.79,19.46 -232.11,60.72 -341.58,115.09 -3.97,4.42 -3.88,3.89 0.3,0.14 l -33.38,16.69" /><path
         id="path46"
         style="fill:#1c1c1c;fill-opacity:1;fill-rule:nonzero;stroke:none"
         d="m 1056.09,217.375 c 144.7,-134.3164 247.75,154.402 267.47,257.488 9.55,49.91 -12.58,64.453 -62.56,64.446 14.21,34.648 58.8,53.875 69.97,86.289 -145.29,31.191 31.07,143.757 80.73,194.316 72.31,73.609 151.82,132.313 242.41,182.016 92.53,50.77 187.75,84.75 294.31,64.73 109.35,-20.54 221.25,-83.68 311.58,-146.914 98.34,-68.848 218.34,-155.156 281.25,-259.402 -26.62,-4.375 -53.13,6.851 -77.31,12.273 28.13,-40.461 86.15,-45.801 116.82,-86.836 52.92,-70.82 -7.98,-63.547 -63.51,-76.926 -4.02,-27.566 34.96,-47.039 49.65,-68.242 17.76,-25.633 25.92,-56.902 38.3,-85.125 28,-63.777 54.15,-86.465 105.87,-125.586 -42.75,-19.05 -105.77,-52.636 -140.19,-83.867 -55.17,157.449 -112.43,314.504 -195.86,459.602 -71.94,125.093 -162.29,252.176 -284.76,332.324 -120.67,78.969 -262.48,87.099 -382.07,1.387 C 1585.75,851.582 1509.26,706.289 1445.6,573.535 1382.27,441.457 1335.04,304.07 1295.41,163.242 c -4.95,-17.617 -9.83,-35.254 -14.71,-52.898 -36.59,18.945 -109,74.238 -136.97,61.133 l -87.64,45.898" /><path
         id="path48"
         style="fill:#1c1c1c;fill-opacity:1;fill-rule:nonzero;stroke:none"
         d="m 1957.45,1427.53 c 75.09,-66.51 225.15,-235.42 321.5,-146.42 59.84,55.28 77.91,94.29 166.01,92.58 88.85,-1.73 128.03,-48.17 158.73,-129.61 27.76,-73.68 44.84,-167.27 84.01,-234.44 9.12,139.05 -18.56,285.68 -25.05,424.11 -5.03,107.54 10.46,207.73 20.48,310.23 5.62,57.47 9.69,112.96 3.63,171.46 -50.41,-67.23 -171.09,-143.74 -257.13,-142.2 -7.05,-143.16 -97.13,-279.78 -175.95,-394.42 -20.73,-30.14 -38.12,-61.39 -70.91,-81.08 -56.5,24.77 -108.34,91.03 -162.73,104.75 l -62.59,25.04" /><path
         id="path50"
         style="fill:#e7b798;fill-opacity:1;fill-rule:nonzero;stroke:none"
         d="m 1554.99,4280.29 c -42.78,-52.91 18.23,-99.99 69.08,-109.37 73.48,-13.56 101.69,27.87 157.73,59.4 76.21,42.89 53.43,-56.96 16.43,-90.6 -45.75,-41.59 -109.23,-55.64 -168.53,-40.72 -72.52,18.24 -121.59,46.18 -119.91,126.84 5.81,7.43 0.76,-1.43 2.98,-3.13 l 42.22,57.58" /><path
         id="path52"
         style="fill:#e7b798;fill-opacity:1;fill-rule:nonzero;stroke:none"
         d="m 2288.11,4138.26 c 10.44,74.34 125.68,83.8 117.14,-2.14 -4.2,-42.31 -40.15,-153.25 -103.89,-131.43 -27.48,9.41 -20.24,69.9 -9.41,95.19 l -3.84,38.38" /><path
         id="path54"
         style="fill:#e7b798;fill-opacity:1;fill-rule:nonzero;stroke:none"
         d="m 1405.29,3950.19 c -5.52,27.07 15.1,76.74 -24.73,87.59 -34.24,9.33 -65.73,-37.39 -71.55,-63.66 -7.24,-32.74 3.44,-74.6 33.95,-92.37 28,-16.32 85.21,-5.54 62.33,37.73 v 30.71" /><path
         id="path56"
         style="fill:#e7b798;fill-opacity:1;fill-rule:nonzero;stroke:none"
         d="m 2096.2,4145.94 c -6.41,25.52 -39.34,47.71 -28.75,76.15 10.3,27.66 49.51,29.46 71.32,15.09 37.11,-24.47 70.87,-125.95 30.32,-157.87 -28.82,-22.69 -65.36,3.76 -69.24,36.29 -2.44,1.26 1.12,-2.65 4.02,-4.2 l -7.67,34.54" /><path
         id="path58"
         style="fill:#e7b798;fill-opacity:1;fill-rule:nonzero;stroke:none"
         d="m 1639.43,3700.69 c 76.18,-103.41 304.66,26.89 357.15,102.29 9.19,-71.84 -8.26,-126.59 -77.66,-163.31 -51.37,-27.17 -125.91,-47.06 -184.01,-41.1 -34.46,3.54 -55.26,22.56 -76.29,48.39 l -19.19,53.73" /><path
         id="path60"
         style="fill:#ffffff;fill-opacity:1;fill-rule:nonzero;stroke:none"
         d="m 1267.81,4486.61 c 7.76,65.8 27.24,128.28 99.54,144.61 56.51,12.76 115.64,-8.33 150.74,-54.26 81.34,-106.46 27.09,-284.26 -125.3,-259.53 -81.52,13.24 -115.6,74.69 -131.69,149.07 l 6.71,20.11" /><path
         id="path62"
         style="fill:#ffffff;fill-opacity:1;fill-rule:nonzero;stroke:none"
         d="m 1763.92,4524.6 c 14.55,64.28 32.76,137.72 97.9,168.55 53.83,25.48 121.4,12.62 161.76,-31.16 88.66,-96.17 28.69,-286.7 -112.51,-281.9 -77.87,2.66 -118.21,64.77 -147.15,128.87 v 15.64" /><path
         id="path64"
         style="fill:#845333;fill-opacity:1;fill-rule:nonzero;stroke:none"
         d="m 2248.08,4452.11 c -45.1,27.54 -92.88,43.94 -143.63,55.2 -6.13,59.15 5.47,117.33 -36.69,164.99 -61.02,68.94 -198.97,110.99 -271.55,34.41 -42.89,-45.25 -46.07,-93.46 -65.84,-147.72 -21.96,-60.28 -80.3,-23.54 -125.57,-55.69 -17.93,55.35 -42.73,114.4 -91.12,150.27 -92.7,68.72 -214.36,-2.15 -256.04,-95.18 -21.33,-47.61 -6.23,-110.87 -38.41,-152.3 -36.02,-46.36 -86.74,-59.73 -113.33,-118.13 l 11.52,-30.71 c -2.68,-7.46 -4.33,-35.77 -4.03,-52.39 21.54,28.16 34.55,57.85 63.36,81.06 28.6,23.04 61.71,35.03 87.48,59.03 20.87,-22.02 46.59,-35.63 72.65,-50.49 57.55,-32.8 107.96,-36.47 168.72,-4.91 65.09,33.79 77.53,89 92.28,155.2 51.28,6.88 102.44,17 153.05,22.09 12.06,-28.02 28,-52.86 50.25,-73.85 46.34,-43.7 98.26,-52.98 160.07,-44.24 66.99,9.46 89,42.79 120.24,99.73 64.4,-8.85 182.05,-49.43 210.36,-107.26 12.23,57.62 8.58,78.93 -43.77,110.89 z m -774.44,-85.86 c -118.86,-64.46 -184.93,67.91 -168.14,167.36 l 3.84,23.03 c 36.36,43.96 91.93,65.36 148.69,51.25 105.35,-26.18 103.01,-194.24 15.61,-241.64 z m 554.66,96.21 c -28.89,-46.91 -91.19,-55.01 -140.64,-39.98 -59.4,18.07 -77.59,65.12 -83.18,122.65 l -3.84,19.19 c 9.84,60.91 44.08,100.85 107.47,108.41 110.89,13.24 177.04,-117.96 120.19,-210.27" /><path
         id="path66"
         style="fill:#999999;fill-opacity:1;fill-rule:nonzero;stroke:none"
         d="m 1032.97,4230.38 c -29.42,50.45 -17.73,165.14 -6.4,220.73 13.96,68.54 36.85,140 81.83,194.67 21.76,26.44 48.42,53.89 78.59,70.63 -44.17,-129.58 -51.58,-272.12 -58.1,-410.94 -1.86,-39.78 -7.87,-77.62 -7.43,-115.95 -12.05,24.11 -61.61,37.17 -69.29,29.35 l -19.2,11.51" /><path
         id="path68"
         style="fill:#999999;fill-opacity:1;fill-rule:nonzero;stroke:none"
         d="m 2199.83,4821.48 c 56.72,-128.06 77.95,-279.68 92.08,-420.02 4.19,-41.6 4.65,-84.75 3.6,-127.51 24.35,14.37 52.9,25.33 79.9,18.43 57.99,142.75 33.88,358.63 -74.16,476.27 -26.94,29.33 -59.55,48.95 -93.75,68.19 l -7.67,-15.36" /><path
         id="path70"
         style="fill:#51311c;fill-opacity:1;fill-rule:nonzero;stroke:none"
         d="m 1359.43,4359.23 c -93.6,40.81 -120.13,150.45 -50.61,229.91 58.08,66.4 181.57,74.82 224.27,-11.52 24.4,-49.34 16.96,-99.83 -1.57,-149.44 0.41,69.34 4.77,161.04 -82.49,173.94 -72.9,10.78 -140.47,-22.02 -147.89,-100.05 -4.09,-42.97 11.59,-80.22 33.71,-116.02 l 24.58,-26.82" /><path
         id="path72"
         style="fill:#51311c;fill-opacity:1;fill-rule:nonzero;stroke:none"
         d="m 1851.07,4432.97 c -44.07,20.48 -69.92,48.66 -72.93,98.88 -2.6,43.3 7.03,97.22 39.12,128.87 61.72,60.89 183.56,47.13 227.49,-26.92 29.65,-49.96 16.5,-101.17 -5.51,-151 7.97,72.1 10.42,155.19 -72.91,181 -70.33,21.79 -153.38,-15.55 -162.04,-93.6 -4.48,-40.39 13.06,-77.77 31.14,-112.65 l 15.64,-24.58" /><path
         id="path74"
         style="fill:#51311c;fill-opacity:1;fill-rule:nonzero;stroke:none"
         d="m 1261.1,4381.57 c 45.36,-53.35 104.5,-94.37 177.46,-75.07 78.36,20.73 130.72,61.35 134.73,144.82 0.52,10.75 -4.81,88.44 12.05,89.54 21.01,1.37 20.25,-80.06 19.7,-90.75 -3.8,-74.08 -41,-138.59 -112.2,-165.13 -71.72,-26.74 -145.86,-11.46 -199.12,42.74 -5.05,5.14 -9.91,10.51 -14.74,15.87 l -17.88,37.98" /><path
         id="path76"
         style="fill:#51311c;fill-opacity:1;fill-rule:nonzero;stroke:none"
         d="m 1766.16,4437.44 c -7.52,13.67 -29.45,51.72 -17.33,67.81 13.71,18.19 25.24,-11.44 30.88,-23.95 20.19,-44.84 33.84,-82.02 83.07,-102.6 94.12,-39.35 178.54,25.66 206.25,112.57 16.99,53.3 8.04,107.97 5.97,162.72 52.04,-63.51 43.24,-158.03 0.52,-224.31 -44.44,-68.96 -119.41,-109.62 -202.65,-86.81 -38.24,10.47 -66.58,40.13 -95.54,65.52 l -11.17,29.05" /><path
         id="path78"
         style="fill:#a9c5e0;fill-opacity:1;fill-rule:nonzero;stroke:none"
         d="m 1518.95,3097.5 c 0,-77.41 -4.85,-153.85 -4.72,-229.24 0.13,-75.19 13.31,-154.54 0,-227.62 17.76,76.44 -4.58,191.39 52.88,252.97 22.46,-10.76 35.8,-37.28 46.81,-59.02 -22.73,59.58 -68.71,159.86 -76.08,201.48 l -18.89,61.43" /><path
         id="path80"
         style="fill:#27963c;fill-opacity:1;fill-rule:nonzero;stroke:none"
         d="m 1689.03,3017.18 c 21.75,117 98.83,158.23 205.99,190.83 48.18,14.66 111.23,24.29 144.01,-25.05 30.8,-46.37 -2.37,-106.46 -6.59,-156.01 -5.5,-64.57 15.83,-127.65 -24.96,-184.59 93.18,-196.87 180.98,-401.11 246.15,-608.65 33.8,-107.64 67.82,-221.82 113.5,-324.97 54.98,-124.17 87.46,-198.68 17.77,-326.68 -56.7,-104.15 -119.06,-202.37 -195.07,-293.47 -63.45,48.5 -130.88,92.6 -198.38,136.47 -67.68,43.98 -140.06,106.09 -211.83,137.77 -21.3,93.58 13.91,216.79 32.26,309.68 20.16,102.15 22.42,198.85 29.64,302.06 7.18,102.7 21.92,205.22 35.02,307.21 11.57,90 37.1,222.61 6.78,310.36 -14.23,41.2 -67.93,71.54 -96.41,105.39 -25.68,30.49 -45.59,73.76 -78.98,96.02 l -18.9,23.63" /><path
         id="path82"
         style="fill:#1d702b;fill-opacity:1;fill-rule:nonzero;stroke:none"
         d="m 1741,3121.12 c -33.64,-87.55 40.03,-179.68 105.04,-234.66 110.6,-93.51 136.85,84.42 141.74,159.68 3.75,57.75 5.44,114.29 -41.84,155.18 25.18,33.06 67.58,5.71 86.72,-21.17 22.11,-31.04 14.3,-71.51 10.88,-111.06 -4.74,-54.86 6.16,-187.59 -32.55,-227.91 81.05,-150.97 133.84,-319.21 193,-480.71 16.61,-45.35 38.26,-88.26 47.48,-135.61 -81.4,174.98 -173.7,345.1 -261.86,516.76 -26.44,51.5 -56.06,63.17 -101.22,16.19 4.23,120.9 -293.68,212.32 -176.68,348.76 1.43,-5.03 0.24,-8.73 0.94,-13.8 l 28.35,28.35" /><path
         id="path84"
         style="fill:#1d702b;fill-opacity:1;fill-rule:nonzero;stroke:none"
         d="m 1821.31,1826.58 c -24.22,-84.42 -30.17,-158.4 29.47,-228.85 47.5,-56.09 114.61,-114.25 177.56,-152.07 195.86,-117.63 278.49,124.58 319.2,273.66 26.94,98.63 18.11,182.76 -20,276.86 64.03,-68.57 127.21,-220.13 95.33,-310.41 -33.2,-93.95 -84.58,-175.72 -136.35,-260.03 -29.43,-47.92 -55.57,-93.36 -93.02,-135.87 -70.78,41.97 -137.87,90.53 -208.59,133.61 -59.72,36.38 -139.82,71.89 -188.21,123.37 -29.1,30.96 -27.04,93.36 -13.18,138.01 l 37.79,141.72" /><path
         id="path86"
         style="fill:#a3dc8d;fill-opacity:1;fill-rule:nonzero;stroke:none"
         d="m 2083.84,1686.45 c -14.83,97.87 84.44,185.87 178.03,125.5 76.43,-49.28 76.77,-198.96 -25.94,-213.81 -42.57,-6.16 -93.74,11.49 -125.68,39.91 l -26.41,48.4" /><path
         id="path88"
         style="fill:#a3dc8d;fill-opacity:1;fill-rule:nonzero;stroke:none"
         d="m 1956.23,2073.7 c -70.23,-60.44 2.03,-159.79 81.32,-154.96 75.96,4.63 122.56,111.71 65.21,166.92 -31.77,30.58 -78.49,27.89 -115.72,10.05 l -30.81,-22.01" /><path
         id="path90"
         style="fill:#a3dc8d;fill-opacity:1;fill-rule:nonzero;stroke:none"
         d="m 2198.27,2205.72 c 0,-24.3 -18.72,-44 -41.81,-44 -23.08,0 -41.81,19.7 -41.81,44 0,24.31 18.73,44.01 41.81,44.01 23.09,0 41.81,-19.7 41.81,-44.01" /><path
         id="path92"
         style="fill:#a3dc8d;fill-opacity:1;fill-rule:nonzero;stroke:none"
         d="m 1868.21,2295.94 c 0,42.53 31.53,77.01 70.42,77.01 38.89,0 70.41,-34.48 70.41,-77.01 0,-42.53 -31.52,-77.01 -70.41,-77.01 -38.89,0 -70.42,34.48 -70.42,77.01" /><path
         id="path94"
         style="fill:#a3dc8d;fill-opacity:1;fill-rule:nonzero;stroke:none"
         d="m 2149.86,2485.17 c 0,-42.53 -33.5,-77.01 -74.82,-77.01 -41.31,0 -74.81,34.48 -74.81,77.01 0,42.53 33.5,77.01 74.81,77.01 41.32,0 74.82,-34.48 74.82,-77.01" /><path
         id="path96"
         style="fill:#a3dc8d;fill-opacity:1;fill-rule:nonzero;stroke:none"
         d="m 1903.42,2687.59 c 0,27.96 22.66,50.61 50.61,50.61 27.95,0 50.6,-22.65 50.6,-50.61 0,-27.95 -22.65,-50.61 -50.6,-50.61 -27.95,0 -50.61,22.66 -50.61,50.61" /><path
         id="path98"
         style="fill:#a3dc8d;fill-opacity:1;fill-rule:nonzero;stroke:none"
         d="m 1830.81,3063.85 c 0,-21.87 -18.72,-39.61 -41.81,-39.61 -23.09,0 -41.8,17.74 -41.8,39.61 0,21.87 18.71,39.61 41.8,39.61 23.09,0 41.81,-17.74 41.81,-39.61" /><path
         id="path100"
         style="fill:#a3dc8d;fill-opacity:1;fill-rule:nonzero;stroke:none"
         d="m 1866.01,2984.64 c 0,-31.6 24.63,-57.21 55.01,-57.21 30.38,0 55.01,25.61 55.01,57.21 0,31.59 -24.63,57.21 -55.01,57.21 -30.38,0 -55.01,-25.62 -55.01,-57.21" /><path
         id="path102"
         style="fill:#a3dc8d;fill-opacity:1;fill-rule:nonzero;stroke:none"
         d="m 1973.83,3151.86 c 0,-21.88 -18.72,-39.6 -41.8,-39.6 -23.09,0 -41.81,17.72 -41.81,39.6 0,21.87 18.72,39.6 41.81,39.6 23.08,0 41.8,-17.73 41.8,-39.6" /><path
         id="path104"
         style="fill:#a3dc8d;fill-opacity:1;fill-rule:nonzero;stroke:none"
         d="m 2000.23,1787.67 c 0,-34.03 -26.6,-61.62 -59.41,-61.62 -32.81,0 -59.41,27.59 -59.41,61.62 0,34.02 26.6,61.61 59.41,61.61 32.81,0 59.41,-27.59 59.41,-61.61" /><path
         id="path106"
         style="fill:#a3dc8d;fill-opacity:1;fill-rule:nonzero;stroke:none"
         d="m 2092.65,1552.23 c 0,-40.1 -34.48,-72.61 -77.01,-72.61 -42.53,0 -77.01,32.51 -77.01,72.61 0,40.11 34.48,72.61 77.01,72.61 42.53,0 77.01,-32.5 77.01,-72.61" /><path
         id="path108"
         style="fill:#a3dc8d;fill-opacity:1;fill-rule:nonzero;stroke:none"
         d="m 2281.87,1943.89 c 0,-20.66 -17.73,-37.41 -39.6,-37.41 -21.88,0 -39.61,16.75 -39.61,37.41 0,20.65 17.73,37.4 39.61,37.4 21.87,0 39.6,-16.75 39.6,-37.4" /><path
         id="path110"
         style="fill:#9dc13d;fill-opacity:1;fill-rule:nonzero;stroke:none"
         d="m 1404.48,3162.46 c -22.87,-106.25 -14.93,-219.24 -21.61,-327.48 -6.8,-110.08 -6.3,-218.02 -2.66,-328.2 3.54,-106.94 14.63,-213.51 25.79,-319.72 5.66,-53.95 -1.09,-108.42 2.95,-162.6 3.96,-53.32 1.68,-105.41 0.99,-158.74 -0.71,-54.54 7.99,-108.45 10.4,-162.85 1.01,-23.03 -0.57,-55.37 17.41,-72.97 17.35,-16.97 46.56,-13.18 68.62,-12.33 13.96,0.54 27.92,1.32 41.89,1.92 -12.65,45.33 -13.67,102.17 -16.19,149.35 -2.7,50.64 -8.02,101.86 -6.22,150.86 2.06,55.91 -10.4,105.1 -14.33,158.58 -3.89,52.87 -1.48,109.86 -2.09,163.37 -1.23,106.49 -1.25,213.17 -6.18,318.17 -2.49,53.06 6.31,106.66 6.19,159.2 -0.12,54.4 2.1,107.13 4.68,161.01 2.49,52.13 3.27,105.27 3.48,158.76 0.1,27.21 0.3,51.46 -5.4,78.86 -5.03,24.15 -6.96,50.79 -6.91,76.66 0.03,12.5 -1.31,26.66 1.31,38.26 -29.84,-7.88 -52.76,-31.05 -75.37,-49.53 l -26.75,-20.58" /><path
         id="path112"
         style="fill:#9dc13d;fill-opacity:1;fill-rule:nonzero;stroke:none"
         d="m 2155.57,3411.46 c 18.05,-51.44 17.17,-104.88 40.45,-154.42 22.28,-47.41 39.11,-93.5 52.05,-143.94 25.87,-100.85 44.25,-202.27 69.22,-306.41 25.53,-106.46 32.38,-215.96 61.3,-322.5 29.03,-106.96 48.01,-218.49 69.12,-326.09 10.99,-56 20.49,-111.36 29.74,-165.94 8.64,-51.07 24.87,-102.52 32.67,-155.04 1.95,-13.12 6.93,-24.9 5.86,-38.75 30.55,14.89 55.97,45.11 87.87,55.87 -17.02,44.19 -19,92.42 -28.46,138.94 -9.57,47.01 -17.89,94.45 -24.9,143.02 -14.19,98.36 -23.55,195.55 -41.12,292.52 -8.8,48.56 -15.74,96.88 -20.44,147.26 -4.01,43.12 -26.43,81.88 -35.18,124.31 -19.66,95.45 -37.36,192.11 -59.46,288.2 -21.93,95.38 -64.01,184.26 -87.54,277.8 -2.94,11.65 -6.96,22.46 -7.5,33.69 -39.27,21.5 -65.87,77.63 -108.7,88.84 l -34.98,22.64" /><path
         id="path114"
         style="fill:#fbf189;fill-opacity:1;fill-rule:nonzero;stroke:none"
         d="m 1445.63,3187.16 c -22.18,-93.47 -12.98,-195.99 -17.86,-293.82 -5.09,-102.11 -8.91,-204.69 -8.89,-308.24 0.01,-101.01 7.55,-199.92 12.33,-299.26 4.73,-98.22 21.21,-195.8 16.45,-295.18 -4.77,-99.74 4.12,-199.08 4.12,-297.91 -0.01,-12.22 1.43,-22.47 2.38,-34.2 14.3,3.01 36.48,2.33 50.83,-2.07 -23.96,39.08 -22.41,104.81 -26.64,148.94 -4.72,49.18 -2.1,99.46 -4.68,149.14 -5.33,102.64 -5.54,207.54 -5.37,310.17 0.09,52.07 -10.7,103.19 -10.31,154.74 0.37,49.34 1.87,100.14 4.31,149.19 2.65,53.11 -5.15,106.47 -2.42,159.02 2.67,51.48 0.28,103.84 0.19,155.43 -0.17,98.7 5.29,198.12 15.07,294.78 1.12,11.08 1.84,22.4 3.52,33.34 -1.03,-1.72 -1.23,-3.91 -2.16,-5.55 l -30.87,-18.52" /><path
         id="path116"
         style="fill:#fbf189;fill-opacity:1;fill-rule:nonzero;stroke:none"
         d="m 2186.43,3392.94 c 13.85,-15.52 20.02,-46.04 26.56,-66.59 8.02,-25.18 18.83,-48.8 28.4,-73.42 17.38,-44.71 27.09,-89.55 40.31,-134.27 13.92,-47.09 21.41,-100.62 29.61,-149.22 9.32,-55.22 21.88,-108.92 36.44,-163.47 13.76,-51.56 16.86,-105.68 26.15,-157.29 9.29,-51.51 21.59,-104.16 35.03,-153.27 27.3,-99.75 44.24,-203.09 62.2,-306.03 17.92,-102.8 41.82,-208.25 60.92,-311.08 2.27,-12.26 5.14,-25.82 4.57,-38.72 12.11,3.23 21.68,14.46 34.36,18.61 -10.36,49.08 -20.1,97.9 -30.67,147.44 -10.01,46.91 -25.41,92.31 -30.79,140.41 -5.58,49.9 -18.7,94.81 -25.73,142.74 -7.5,51.25 -9.25,102.89 -19.71,153.24 -20.37,98.1 -42.07,201.46 -67.81,299.61 -25.92,98.83 -42.63,196.97 -70.91,294.2 -26.81,92.13 -51.83,186.17 -74.68,277.43 -2.95,11.78 -3.14,24.89 -8.68,34.41 l -55.57,45.27" /><path
         id="path118"
         style="fill:#b2b2b2;fill-opacity:1;fill-rule:nonzero;stroke:none"
         d="m 1371.55,2477.23 c -23.68,-14.81 -15.26,-64.89 -5.93,-86.91 12.9,-30.43 58.09,-24.31 85.08,-19.02 25.67,5.03 66.92,6.64 72.01,36.67 4.07,23.96 6.61,80.74 -22.85,86.22 -17.34,3.22 -37.71,-7.37 -55.27,-8.43 -19.26,-1.14 -35.85,0.27 -54.52,-6.47 l -18.52,-2.06" /><path
         id="path120"
         style="fill:#b2b2b2;fill-opacity:1;fill-rule:nonzero;stroke:none"
         d="m 2340.77,2617.16 c -12.26,-27.13 14.78,-85.27 27.1,-110.75 20.47,5.25 46.13,0.28 68.6,3.72 22.08,3.38 43.84,12.52 66.55,6.45 -8.32,35.19 -10.59,72.62 -18.06,108.04 -19.51,-2.56 -40.94,3.19 -62.01,0.89 -19.34,-2.12 -38.77,-11.06 -59.55,-4.24 l -22.63,-4.11" /><path
         id="path122"
         style="fill:#808080;fill-opacity:1;fill-rule:nonzero;stroke:none"
         d="m 1367.44,2460.76 c -5.93,-36.35 9.02,-69.93 48.65,-69.69 31.23,0.18 76.35,3.86 82.92,40.09 3.33,18.36 0.18,40.55 -15.56,52.3 9.43,2.01 19.73,3.62 29.79,3.74 5.61,-19.59 14.5,-77.21 2.78,-94.37 -15.49,-22.68 -67.09,-18.61 -90.17,-18.35 -19.03,0.23 -37.57,-1.13 -56.46,-3.44 -1.62,7.82 -2.85,16.59 -4.02,24.87 -1.1,7.79 -0.94,22.79 -4.1,19.58 l 6.17,45.27" /><path
         id="path124"
         style="fill:#808080;fill-opacity:1;fill-rule:nonzero;stroke:none"
         d="m 2346.94,2586.29 c 13.6,-32.68 22.27,-62.31 63.35,-54.18 32.13,6.36 70.59,5.72 66.28,47.49 -1.76,16.99 -8.09,31.41 -22.41,41.26 34.89,7.67 31.57,-5.52 39.42,-35.63 6.09,-23.44 14.69,-48.28 11.49,-72.71 -32.55,0.68 -63.15,-6.77 -96.27,-1.75 -10.65,1.61 -38.78,-2.41 -46.42,3.09 -7.04,5.06 -10.79,34.02 -13.38,41.56 l -2.06,30.87" /><path
         id="path126"
         style="fill:#f2f2f2;fill-opacity:1;fill-rule:nonzero;stroke:none"
         d="m 1383.89,2444.3 c -2.19,3.26 -3.02,8.82 -1.74,14.04 19.08,6.89 39.93,11.28 60.04,12.82 7.02,0.54 25.95,2.89 29.88,-3.45 7.6,-12.28 -10.97,-15 -18.21,-15.18 l -69.97,-8.23" /><path
         id="path128"
         style="fill:#f2f2f2;fill-opacity:1;fill-rule:nonzero;stroke:none"
         d="m 2363.4,2582.17 c -12.54,27.18 39.96,16.75 53.98,16.79 7.33,0.02 28.3,7.48 30.42,-3.2 2.11,-10.56 -21.59,-8.74 -28.84,-9.47 l -55.56,-4.12" /><path
         id="path130"
         style="fill:#b2b2b2;fill-opacity:1;fill-rule:nonzero;stroke:none"
         d="m 1416.82,1672.63 c -2.71,-1.26 -6.29,-5.27 -8.43,-8.24 19.02,-36.89 17.9,-85.85 31.43,-125.15 32.3,1.71 66.2,-5.93 100.16,-4.18 16.23,53.88 40.74,143.96 -44.02,138.78 -17.77,-1.1 -34.61,-0.75 -52.39,0.85 l -26.75,-2.06" /><path
         id="path132"
         style="fill:#b2b2b2;fill-opacity:1;fill-rule:nonzero;stroke:none"
         d="m 2503.34,1837.26 c -2.05,-0.97 -3.51,-1.88 -5.82,-2.42 -2.77,-20.04 7.38,-46.92 12.13,-66.61 4.81,-19.91 10.06,-39.48 16.68,-58.2 42.72,7.27 78.86,21.06 83.37,66.4 2.48,24.96 26.65,107.82 -8.25,106.48 -17.29,-0.66 -46.82,-19.14 -61.07,-29.19 l -37.04,-16.46" /><path
         id="path134"
         style="fill:#808080;fill-opacity:1;fill-rule:nonzero;stroke:none"
         d="m 1431.23,1600.61 c -2.14,8.06 -3.71,15.73 -3.76,24.33 27.91,12.02 70.79,10.86 98.6,-2.64 29.77,-14.43 15.34,-65.26 13.91,-93.4 -17.17,-0.84 -37.44,-5.12 -54.31,-2.46 -14.42,2.28 -27.7,11.67 -41.74,14.85 -2.8,9.73 -6.66,34.45 -6.53,36.69 l -6.17,22.63" /><path
         id="path136"
         style="fill:#808080;fill-opacity:1;fill-rule:nonzero;stroke:none"
         d="m 2517.74,1754.94 c -12.15,43.72 29.76,69.35 70.6,74.3 27.44,3.33 24.7,-14.79 21.12,-35.94 -2.97,-17.52 0.75,-47.19 -13.6,-59.63 -14.91,-12.91 -46.7,-10.3 -65.37,-19.68 -1.31,9.06 -7.22,24 -8.64,28.61 l -4.11,12.34" /><path
         id="path138"
         style="fill:#1c1c1c;fill-opacity:1;fill-rule:nonzero;stroke:none"
         d="M 446.848,54.6289 C 398.754,210.918 579.809,277.305 703.453,235.879 c 29.043,-9.734 46.942,-33.828 74.207,-44.902 30.133,-12.227 71.797,-7.129 103.07,-1.946 70.926,11.789 106.688,41.742 180.5,12.395 33.99,-13.504 64.91,-33.242 99.87,-44.453 32.92,-10.547 65.93,-12.43 93.53,-35.477 -1.61,-11.68 -4.31,-25.0897 -7.31,-36.9257 -41.64,-19.4648 -96.53,-39.6562 -136.42,-24.0117 -26.36,10.332 -27.42,27.8984 -54.04,13.6797 C 1032.98,61.4961 1037.3,42.6055 1005.48,33.5547 895.824,2.35547 776.969,28.3203 666.508,34.2383 c -58.457,3.125 -124.746,0.6953 -181.34,17.1484 -8.465,6.6211 2.258,0.625 3.406,3.2422 h -41.726" /><path
         id="path140"
         style="fill:#1c1c1c;fill-opacity:1;fill-rule:nonzero;stroke:none"
         d="m 2633.46,46.2891 c -24.14,68.9449 -30.94,137.4809 46.52,169.2189 55.65,22.805 140.99,56.328 201.05,56.308 68.99,-0.027 113.34,-65.222 180.18,-67.089 70.33,-1.954 119.86,53.007 194.29,30.019 85.25,-26.328 115.49,-93.601 128.45,-175.3046 -103.58,-5.8945 -203.83,-22.2461 -305.73,-26.0703 -52.2,-1.9648 -105.4,-6.5547 -159.21,-3.8594 -33.34,1.6719 -39.87,1.9531 -62.78,22.2383 -19.96,17.6836 -23.34,40.918 -57.13,29.5195 -31.26,-10.5468 -20.03,-40.457 -42.72,-55.8476 -16.65,-11.3008 -66.77,-6.6055 -85.36,0 l -37.56,20.8672" /><path
         id="path142"
         style="fill:#999999;fill-opacity:1;fill-rule:nonzero;stroke:none"
         d="m 526.133,167.305 c 24.422,35.3 104.746,52.148 136.687,14.558 53.028,-62.398 -96.882,-28.992 -120,-31.258 l -16.687,16.7" /><path
         id="path144"
         style="fill:#999999;fill-opacity:1;fill-rule:nonzero;stroke:none"
         d="m 3117.52,154.785 c 22.33,25.547 139.24,83.684 141.14,13.235 -25.43,-14.622 -106.14,-26.809 -116.11,-17.415 l -25.03,4.18" /><path
         id="path146"
         style="fill:#808080;fill-opacity:1;fill-rule:nonzero;stroke:none"
         d="m 3681.99,3857.5 50.42,5.35 -57.66,-225.55 -69.79,13.95 33.49,114.46 25.13,67 18.41,24.79" /><path
         id="path148"
         style="fill:#808080;fill-opacity:1;fill-rule:nonzero;stroke:none"
         d="m 3766.87,4385.44 h 55.83 l 404.78,1546.54 -19.55,8.37 -413.15,-1479.53 -27.91,-75.38" /><path
         id="path150"
         style="fill:#000000;fill-opacity:1;fill-rule:nonzero;stroke:none"
         d="m 1449.68,4605.18 c -0.23,0 -0.27,-0.32 -0.05,-0.39 75.61,-21.95 75.85,-96.23 72.29,-161.7 -25.28,-60.88 -77.2,-108.18 -148.1,-69.73 -83.19,45.1 -87.85,207.45 17.27,227.43 1.27,0.25 1.58,2.31 0.37,2.86 -36.23,16.45 -84.48,-36.16 -96.65,-66.02 -24.93,-61.21 -2.9,-131.29 44.83,-174.99 72.11,-66.03 186.86,-18.21 204.68,65.82 11.02,30.04 4.54,68.97 -3.24,97.44 -12.03,44.07 -44.23,78.98 -91.4,79.28" /><path
         id="path152"
         style="fill:#000000;fill-opacity:1;fill-rule:nonzero;stroke:none"
         d="m 1956.66,4672.43 c -0.39,0.03 -0.55,-0.57 -0.2,-0.73 72.06,-32.03 97,-130.74 61.22,-198.11 -39.42,-40.54 -91.27,-62.58 -150.08,-29.65 -57.23,32.04 -72.56,147.56 -28.56,195.5 0.43,0.47 -0.15,1.32 -0.71,0.92 -75.63,-54.05 -57.08,-171.4 14.63,-221.46 63.23,-44.13 152.71,-15.65 188.46,46.53 17.7,27.53 24.26,64.34 19.87,93.93 -8.19,55.27 -46.66,108.54 -104.63,113.07" /><path
         id="path154"
         style="fill:#000000;fill-opacity:1;fill-rule:nonzero;stroke:none"
         d="m 1386.86,4454.4 c 0.27,-0.45 0.59,-0.8 0.88,-1.22 5.46,-11.2 15.12,-20.63 26.48,-26.17 27.03,-13.18 55.05,-3.44 72.4,19.84 14.03,18.82 16.92,46.54 5.84,67.41 -13.17,24.85 -40.93,34.72 -67.51,28.97 -22.45,-4.85 -47.84,-29.44 -48,-53.59 -0.08,-12.5 3.33,-24.6 9.91,-35.24 z m 33.98,57.35 c 12.21,0 22.11,-10.79 22.11,-24.11 0,-13.32 -9.9,-24.12 -22.11,-24.12 -12.21,0 -22.11,10.8 -22.11,24.12 0,13.32 9.9,24.11 22.11,24.11" /><path
         id="path156"
         style="fill:#000000;fill-opacity:1;fill-rule:nonzero;stroke:none"
         d="m 1936.77,4495.57 c 22.68,3.28 40.68,19.74 49.25,40.33 11.38,27.37 4.26,56.46 -21.9,75.29 -22.07,15.89 -57.27,13.2 -76.99,-4.86 -3.75,-3.44 -7.01,-7.33 -9.55,-11.57 -15.49,-19.28 -14.51,-49.12 -4.94,-70.29 10.93,-24.15 40.21,-32.36 64.13,-28.9 z m -29.66,88.52 c 13.32,0 24.12,-11.25 24.12,-25.12 0,-13.87 -10.8,-25.12 -24.12,-25.12 -13.32,0 -24.11,11.25 -24.11,25.12 0,13.87 10.79,25.12 24.11,25.12" /><path
         id="path158"
         style="fill:#000000;fill-opacity:1;fill-rule:nonzero;stroke:none"
         d="m 1904.03,4854.86 c 22.09,-0.82 44.03,-7.45 63.51,-17.59 16.6,-8.63 25.94,-19.29 45.44,-19.87 11.65,-0.35 25.28,11.08 23.64,23.63 -6.48,49.57 -70.35,59.95 -112.07,62.66 -29.49,1.92 -106.05,-2.89 -109,-43.88 -0.1,-1.52 0.91,-2.93 2.13,-3.71 21.78,-13.93 61.49,-0.33 86.35,-1.24" /><path
         id="path160"
         style="fill:#000000;fill-opacity:1;fill-rule:nonzero;stroke:none"
         d="m 1297.47,4729.88 c 7.18,5.08 16.96,6.63 24.85,10.84 14.7,7.84 29.04,15.78 44.44,22.25 15.19,6.38 30.68,12.25 46.39,17.22 6.55,2.07 13.28,3.63 19.99,5.07 0.16,0.03 0.22,0.04 0.37,0.08 27.93,-22.31 68.13,27.16 32.09,50.87 -29.83,19.63 -73.94,-8.52 -98.37,-25.04 -27.87,-18.85 -66.05,-44.43 -71.77,-79.75 -0.17,-1.05 0.92,-2.32 2.01,-1.54" /><path
         id="path162"
         style="fill:#000000;fill-opacity:1;fill-rule:nonzero;stroke:none"
         d="m 1836.8,3771.05 c 147.4,52.91 224.9,171.91 223.16,321.58 1.07,13.87 3.22,27.03 6.01,40.22 0.24,0.82 0.41,1.66 0.52,2.53 1.34,6.13 2.76,12.28 4.33,18.54 0.38,1.53 -1.48,2.62 -2.61,1.52 -1.25,-1.21 -2.39,-2.53 -3.5,-3.86 -1.31,0.76 -2.66,1.03 -4.17,0.26 -2.41,-1.23 -6.34,-2.71 -7.74,-5.21 -0.14,-0.25 -0.16,-0.48 -0.28,-0.71 -6.22,-1.33 -10.84,-5.78 -16.72,-9.55 -9.16,-5.9 -19.38,-10.39 -29.08,-15.32 -2.36,-1.21 -4.67,-2.34 -6.93,-3.46 -86.06,-39.13 -168.1,-84.16 -261.22,-109.81 -91.42,-25.17 -183.57,-56.15 -278.12,-65.49 -2.28,0.78 -4.65,0.44 -6.76,-0.66 -3.54,-0.32 -7.08,-0.54 -10.62,-0.79 -1.18,0.36 -2.35,0.73 -3.55,0.98 -1.16,0.23 -2.13,-0.49 -2.51,-1.43 -0.25,-0.02 -0.49,-0.04 -0.74,-0.06 -0.61,-0.03 -0.76,-0.75 -0.3,-1.09 0.47,-0.34 0.96,-0.62 1.43,-0.95 0.02,-0.02 0.01,-0.04 0.03,-0.06 3.89,-3.75 8.12,-7.16 12.39,-10.51 7.86,-12.67 20.05,-23.33 30.69,-34.37 15.63,-26.2 42.76,-57.87 49.15,-66.32 23.06,-30.5 54.29,-57.74 89.39,-73.26 62.44,-27.59 156.97,-4.55 217.75,17.28 z m -261.4,81.47 c -24.54,24.5 -47.69,50.41 -77.06,68.5 17.62,-0.27 35.61,1.98 52.68,4.28 60.13,8.13 121.71,27.77 179.68,45.16 93.47,28.02 200.14,64.17 280.63,125.46 -0.08,-1.03 -0.27,-2.04 -0.24,-3.08 0.18,-6.55 0.89,-13.6 2.61,-20.21 -1.04,-10.23 -1.46,-20.67 -1.65,-31.25 -2.05,-8.5 -3.44,-17.26 -5.39,-25.42 -0.5,-2.15 -0.89,-4.2 -1.34,-6.3 -49.18,-63.54 -147.11,-95.93 -218.49,-117.31 -49.19,-14.73 -146.15,-51.39 -211.43,-39.83" /><path
         id="path164"
         style="fill:#000000;fill-opacity:1;fill-rule:nonzero;stroke:none"
         d="m 1998.24,3804.84 c 0.78,1.82 -1.53,3.27 -2.7,1.58 -36.55,-52.83 -120.19,-90.13 -179.33,-110.72 -69.62,-24.24 -128.19,-16.82 -194.7,11.24 -0.49,0.21 -0.91,-0.46 -0.67,-0.86 39.16,-63.48 126.88,-56.22 189.3,-40.28 74.64,19.05 157.11,66.08 188.1,139.04" /><path
         id="path166"
         style="fill:#000000;fill-opacity:1;fill-rule:nonzero;stroke:none"
         d="m 1502.99,2482.84 c 2.35,-11.11 6.41,-2.48 0,0 v 0" /><path
         id="path168"
         style="fill:#000000;fill-opacity:1;fill-rule:nonzero;stroke:none"
         d="m 627.02,1753.93 c -17.215,13.89 -37.336,23.21 -56.715,34.7 -28.407,16.84 -52.75,39.21 -75.227,63.16 -44.848,47.76 -62.207,109.19 -98.777,161.32 -0.363,0.52 -1.266,0.52 -1.426,-0.19 -14.066,-62.18 24.66,-129.76 62.332,-177.45 32.07,-40.59 87.516,-99.81 145.231,-106.92 -4.786,-24.96 7.414,-51.45 7.335,-77.46 -0.101,-34.29 -2.453,-68.51 -6.425,-102.55 -6.868,-58.95 -16.77,-156.98 -89.723,-164.56 -0.52,-0.06 -0.766,-0.6 -0.418,-1 51.789,-61.12 99.469,72.98 107.637,104.34 15.215,58.44 46.16,182.58 5.699,241.46 3.395,0.51 6.789,1.06 10.172,2.01 0.09,0.03 0.137,0.11 0.226,0.14 23.973,0.44 50.532,20.24 68.27,31.78 16.629,10.81 52.266,32.23 54.523,56.17 1.946,0.21 3.821,1.48 3.625,3.73 -3.73,43.09 -54.574,82.98 -79.804,115.82 -31.45,40.93 -53.789,91.27 -90.297,127.7 -1.012,1 -2.567,-0.04 -2.285,-1.33 10.597,-49.94 43.625,-96.58 69.75,-139.72 17.558,-28.99 41.898,-76.7 74.488,-97.11 -17.16,-8.78 -34.305,-28.32 -46.445,-37.13 -18.2,-13.19 -44.453,-21.67 -61.746,-36.91" /><path
         id="path170"
         style="fill:#000000;fill-opacity:1;fill-rule:nonzero;stroke:none"
         d="m 379.863,1976.96 c 5.317,0.95 10.899,6.59 11.879,11.88 0.633,3.39 0.508,5.59 0,9.04 -0.894,6.03 -6.73,9.95 -11.879,11.88 -19.41,7.25 -39.535,9.53 -58.457,18.55 -17.867,8.51 -33.129,20.76 -48.008,33.58 -15.726,13.56 -27.699,29.32 -39.05,46.63 -6.301,9.6 -10.641,17.25 -21.864,20.42 -0.886,0.25 -1.605,-0.31 -1.921,-1.09 -11.739,-29.42 32.675,-82.31 51.582,-102.91 28.656,-31.22 74.785,-55.65 117.718,-47.98" /><path
         id="path172"
         style="fill:#000000;fill-opacity:1;fill-rule:nonzero;stroke:none"
         d="m 283.074,1697.18 c -9.574,-24.8 -20.082,-46.63 -35.414,-70.05 -31.64,-48.34 -67.762,-92.01 -93.672,-144.02 -1.172,-2.37 1.266,-5.22 3.746,-3.75 87.27,52.1 163.286,171.12 153.454,274.42 -0.059,0.61 -0.852,1.13 -1.336,0.56 -3.243,-3.9 -5.797,-7.8 -8.114,-11.73 -39.59,-14.6 -76.343,-36.96 -113.082,-57.65 -25.843,-14.56 -52.238,-27.23 -80.687,-35.82 -15.6331,-4.71 -32.2893,-6.53 -48.4963,-4.21 -16.4219,2.37 -60.101606,53.05 -38.7461,63.14 1.1367,0.54 2.1718,2.23 2.0039,3.5 -0.125,0.96 -0.25,1.91 -0.3789,2.87 -0.0235,0.18 -0.1016,0.33 -0.2852,0.38 -1.7344,0.56 -3.5039,0.97 -5.3086,1.23 -2.3008,0.47 -4.4609,-0.27 -5.7344,-2.33 -39.2695,-63.52 34.4532,-116.01 94.5396,-102.95 44.73,9.72 85.046,30.71 124.085,54.03 16.032,9.58 36.946,19.36 53.426,32.38" /><path
         id="path174"
         style="fill:#000000;fill-opacity:1;fill-rule:nonzero;stroke:none"
         d="m 496.648,1535.36 c -0.882,-10.22 -1.781,-20.46 -2.878,-30.69 -3.782,-35.28 -11.965,-74.5 7.828,-106.16 0.98,-1.58 3.437,-1.72 4.382,0 17.247,31.4 14.973,71.28 16.024,106.16 0.988,32.65 1.629,63.15 -9.133,93.24 0.012,0.07 0.024,0.14 0.035,0.2 0.414,2.91 -0.879,5.22 -2.769,6.5 -0.457,1.1 -0.86,2.2 -1.352,3.3 17.754,-2.63 35.352,-0.42 50.488,11.72 2.508,2.01 1.059,6.53 -1.894,7.18 -39.637,8.74 -73.547,12.78 -111.074,30.94 -25.977,12.58 -53.41,34.45 -83.457,32.43 -1.797,-0.12 -2.457,-2 -1.383,-3.33 9.004,-11.24 21.09,-21.09 34.488,-29.82 -16.144,-47.57 -46.594,-87.19 -72.191,-129.53 -13.258,-15.12 -26.809,-30 -40.582,-44.94 -13.762,-14.92 -27.625,-29.13 -44.641,-40.37 -27.516,-18.19 -80.691,-6.51 -75.047,36.26 0.055,0.42 -0.547,0.76 -0.887,0.5 -19.691,-15.02 -15.91,-33.99 -1.542,-52.65 16.753,-21.76 46.644,-24.84 71.574,-20.42 21.422,3.79 39.164,15.73 54.418,32.09 -2.028,-22.03 4.492,-42.38 30.75,-49.5 33.605,-9.11 75.601,12.86 100.965,32.53 34.691,26.89 61.437,69.98 77.878,114.36 z M 317.117,1411.22 c -19.222,38.53 35.727,108.23 54.231,139.27 18.988,31.83 34.043,66.24 29.73,103.42 21.02,-12.98 44.535,-23.48 64.336,-32.23 12.789,-5.66 26.637,-10.85 40.461,-13.3 -0.195,-0.97 -0.305,-1.93 -0.492,-2.9 -1.289,-0.37 -2.539,-1.23 -3.547,-2.7 -30.766,-44.89 -46.106,-96.93 -80.133,-140.1 -11.426,-14.5 -85.48,-89.72 -104.586,-51.46" /><path
         id="path176"
         style="fill:#000000;fill-opacity:1;fill-rule:nonzero;stroke:none"
         d="m 32.0078,1710.41 c 50.9297,9.61 100.6832,35.79 143.6372,64.02 27.402,18.01 67.191,46.31 83.988,79.14 16.148,-27.97 47.855,-48.16 76.597,-60.64 34.633,-15.03 98.567,-18.72 118.657,21.05 1.633,3.24 -1.016,6.88 -4.629,6.03 -41.367,-9.69 -79.516,-6.15 -117.813,12.96 -25.898,12.92 -44.609,35.17 -67.367,52.2 -1.168,2.15 -2.82,3.92 -4.976,4.95 -9.805,28.74 -47.59,50.74 -63.122,77.59 -22.941,39.69 -28.796,111.34 5.813,146.06 0.477,0.49 0.133,1.35 -0.551,1.34 -50.328,-0.42 -55.847,-84.31 -51.246,-119.63 4.43,-34.02 35.766,-99.17 75.051,-117.37 -2.125,-2.4 -4.313,-5.17 -6.797,-8.63 -21.793,-30.27 -43.453,-51.61 -73.566,-73.91 -37.137,-27.52 -86.2699,-46.71 -114.559,-84.02 -0.4609,-0.6 0.293,-1.25 0.8828,-1.14" /><path
         id="path178"
         style="fill:#000000;fill-opacity:1;fill-rule:nonzero;stroke:none"
         d="m 3502.81,4267.55 c 72.62,81.35 193.57,120.23 226.19,236 0.61,2.17 -2.03,3.46 -3.59,2.09 -52.71,-46.33 -96.54,-103.03 -154.87,-142.85 -28.02,-19.12 -85.47,-53.56 -70.34,-94.55 0.37,-1.03 1.77,-1.64 2.61,-0.69" /><path
         id="path180"
         style="fill:#000000;fill-opacity:1;fill-rule:nonzero;stroke:none"
         d="m 4229.55,5941.77 c -0.25,0.35 -0.45,0.71 -0.72,1.04 -2.74,3.5 -6.76,5.71 -11.29,5.71 -3.4,0 -8.22,-1.48 -10.72,-3.98 -3.71,-3.72 -3.95,-8.65 -2.18,-12.86 0.11,-0.24 0.41,-0.22 0.65,-0.17 -144.39,-467.27 -271.49,-941.55 -397.44,-1414.21 -2.03,-7.62 -3.88,-15.58 -5.64,-23.65 -6.7,38.23 -60.43,72.63 -73.93,21.28 -0.48,-1.8 1.51,-3.41 3.15,-2.43 43,25.88 45.28,-33.7 42.75,-61.48 -3.7,-40.59 -32.23,-81.18 -56.27,-112.84 -1.71,-2.25 1.45,-4.41 3.47,-3.47 17.66,8.19 32.44,18.82 44.52,31.25 42.32,10.52 100.47,17.7 86.37,-44.86 -12.04,-53.43 -58.69,-71 -87.94,-111.8 -2.03,-2.84 1.36,-7.3 4.64,-6.03 24.2,9.36 47.48,22.96 66.46,40.35 4.81,0.28 9.69,0.22 15.19,-1.04 19.85,-4.57 28.37,-28.95 28.42,-46.69 0.07,-24.52 -15.59,-45.94 -30.56,-65.87 -39.41,-15.06 -84.64,-58.49 -108.19,-69.02 -0.62,-0.28 -0.18,-1.27 0.45,-1.07 25.23,7.75 48.79,20.6 71.58,33.67 7.46,4.28 15.64,8.67 23.85,12.06 0.23,0 0.45,-0.1 0.68,-0.03 3.45,1.01 6.81,2.31 10.12,3.77 18.32,5 35.23,1.87 42.74,-23.67 7.81,-26.53 -31.33,-53.66 -48.61,-66.85 -10.82,-8.26 -25.22,-14.62 -34.81,-24.15 -9.91,-9.85 -17.09,-20.8 -28.56,-29.12 -0.8,-0.57 -0.11,-1.86 0.78,-1.34 14.89,8.62 32.05,7.48 47.05,15.71 12.35,6.77 24.98,13.95 36.81,22.05 0.19,-0.05 0.33,-0.17 0.52,-0.21 0.07,-0.02 0.06,0.2 -0.01,0.54 0.53,0.37 1.09,0.71 1.63,1.09 1.57,-2.43 3.78,-4.23 6.44,-5.18 14.14,-48.03 -85.68,-98.23 -115.9,-110.01 -18.7,-7.28 -38.96,-12 -58.84,-14.55 -32.67,-4.2 -68.75,24.12 -27.26,47.79 0.91,0.52 1.55,1.19 2.08,1.92 14.43,2.46 28.1,9.17 36.94,19.53 0.96,1.12 0.76,3.26 -0.95,3.59 -20.48,3.95 -53.68,-4.36 -69.71,12.07 -11.26,11.54 -1.28,38.98 4.97,49.91 1.59,2.79 16.95,15.75 22.31,23.45 13.41,3.51 26.02,9.38 36.03,16.6 1.79,1.29 0.73,4.04 -1.5,3.57 -26.85,-5.69 -68.16,-11.69 -87.72,13.94 -11.52,15.09 0.98,35.83 10.69,48.22 31.93,40.77 88.1,53.4 129.02,82.18 0.47,0.34 0.31,1.08 -0.29,1.1 -36.25,1.15 -72.25,-20.37 -105.8,-35.76 -0.78,1.01 -1.97,1.77 -3.4,1.93 -65.17,7.26 -17.73,65.93 4.08,92.77 21.01,25.86 46.59,47.68 67.99,73.14 0.41,0.49 -0.11,1.29 -0.71,0.93 -52.52,-32.28 -113.24,-63.29 -137.63,-123.64 -10.92,-27.02 9.19,-57.65 32.06,-65.51 -13.62,-11.89 -24.26,-28.29 -29.69,-44.08 -6.94,-20.21 -0.47,-39.27 14.07,-52.44 -2.95,-8.32 -3.08,-19.28 -4.72,-25.5 -10.34,-39.31 -38.58,-76.35 -78.75,-87.85 -0.7,-0.2 -0.78,-1.36 0,-1.51 28.93,-5.55 53.98,8.12 73.92,28.32 15.69,15.88 34.3,46.62 35.18,72.67 4.63,-1.25 9.42,-2.01 14.29,-2.37 -23.22,-21.51 -34.14,-61.92 -16.04,-86.77 5.44,-7.47 12.97,-12.62 21.46,-15.78 -14.4,-9.51 -21.93,-26.46 -11.37,-46.03 8.33,-15.43 19.78,-24.67 32.93,-29.72 -4.41,-6.17 -7.78,-13.8 -10.55,-21.59 -25.34,-2.7 -48.75,-13.33 -74.89,-15.06 -30.66,-2.02 -59.55,1.56 -88.34,12.24 -0.78,0.29 -1.61,-0.76 -1.11,-1.43 3.43,-4.68 7.72,-8.97 12.45,-12.99 -0.41,-0.19 -0.89,-0.34 -1.23,-0.57 -9.32,-6.27 -15.58,-14.26 -22.2,-23.23 -4.42,-5.97 -9.46,-13.32 -13.61,-21.22 -1.18,3.47 -2.39,6.95 -3.56,10.42 -11.59,34.38 -21.19,69.56 -30.98,104.48 -6.81,24.33 -16.71,48.67 -22.48,73.48 2.83,4.88 5.64,9.77 8.4,14.68 27.63,34.14 48.54,80.48 65.44,115.17 23.36,47.91 39.35,111.51 24.15,163.94 -0.55,1.87 -3.22,1.86 -3.77,0 -18.02,-61.77 -33.3,-118.33 -62.4,-176.56 -13.76,-27.55 -35.4,-57 -49.27,-87.37 -31.81,-33.18 -59.07,-70.75 -85.43,-108.33 -41.77,-59.54 -86.89,-114.98 -135.56,-168.98 -92.8,-102.97 -193.47,-198.66 -306.39,-279.35 -102.65,-73.35 -222.89,-136.29 -346.21,-165.42 -150.55,-35.58 -223.24,93.61 -340.83,153.52 -0.82,0.41 -1.66,0.57 -2.49,0.7 -0.53,1.98 -0.92,3.97 -1.49,5.94 -8.82,30.91 -29.7,51.05 -51.04,71.95 -0.64,7.82 -2.05,15.3 -4.65,22.16 17.92,17.25 34.96,35.83 50.78,56.1 56.19,72.02 91.01,155.84 112.38,244.17 7.2,29.75 13.84,62.11 18.64,95.24 28.43,-4.81 71.71,12.37 89.19,23.71 60.38,39.18 91.24,120.95 101.21,188.84 10.1,68.79 -17.03,128.55 -77.39,163.86 -1.07,0.63 -2.27,1.18 -3.39,1.78 20.33,39.3 21.12,85.41 23.75,129.23 3.83,64.07 -0.05,126.53 -15.41,188.95 -14.07,57.13 -44.37,111.32 -80.56,157.23 -35.61,45.16 -73.49,71.58 -120.46,95.98 -85.13,170.33 -236.1,320.51 -430.91,347.41 -189.39,26.16 -362.31,-81.9 -472.15,-229.32 -50.94,-68.37 -88.6,-140.62 -115.51,-216.03 -75.8,-42.59 -135.55,-146.06 -163.89,-219.17 -39.172,-101.06 -44.301,-208.97 -16.8,-313.46 -14.677,-7.57 -25.892,-18.59 -34.333,-31.79 -9.16,-9.43 -17.168,-19.48 -23.473,-28.44 -42.273,-60.08 -34.695,-143.91 -13.969,-209.95 17.891,-57.02 59.411,-108.6 111.745,-137.2 25.21,-13.77 69.56,-12.69 91.47,8.24 0.14,-0.49 0.23,-0.97 0.37,-1.46 23.58,-84.13 66.45,-165.35 119.8,-234.25 66.14,-85.42 148.9,-145.43 242.79,-181.87 5.04,-20.86 13.79,-45.81 25.24,-69.27 -12.28,-18.79 -19.3,-41.45 -21.84,-63.56 -0.64,-5.49 -1.37,-10.95 -2.09,-16.39 -1.38,-3.22 -2.47,-6.56 -3.63,-9.88 -1.44,-0.19 -2.94,-0.52 -4.49,-1.05 -45.14,-15.59 -78.29,-53.4 -110.46,-87.03 -45.39,-47.46 -85,-97.21 -122.24,-151.26 -41.31,-59.96 -75.81,-124.52 -112.86,-187.15 -40.75,-68.88 -90.36,-130.37 -138.01,-194.39 -90.814,-122.03 -183.002,-243.15 -289.17,-352.4 -48.343,-49.76 -100.648,-92.64 -155.082,-135.43 -31.543,-24.8 -63.593,-49.09 -96.085,-72.64 -20.079,-14.54 -58.59,-49.72 -84.911,-44.54 -6.89,1.36 -9.668,-8.37 -2.91,-10.54 37.121,-11.93 69.012,16.04 100.883,32.73 62.961,32.99 121.879,77.31 177.516,121.34 113.652,89.96 210.539,207.86 295.449,324.65 89.73,123.42 157.91,259.75 245.2,384.93 47.87,68.66 98.37,133.57 153,196.94 6.81,7.89 14.22,16.7 22.1,25.92 -0.94,-16.87 -0.35,-34 -0.23,-50.2 0.47,-65.37 -2.94,-130.5 -6.76,-195.74 -3.77,-64.42 -6.07,-128.67 -4.58,-193.21 1.38,-59.23 -1,-125.09 8.83,-183.51 -2.19,-0.33 -4.36,-0.56 -6.55,-0.9 -2.21,-0.35 -4.11,-2.62 -4.66,-4.66 0.18,-0.89 -0.05,-1.39 -0.67,-1.51 -1.28,-0.44 -1.02,-2.22 0.31,-2.31 0.53,0.03 0.81,-0.34 0.93,-0.95 -0.67,0.43 -1.7,0.41 -2.28,-0.36 -10.7,-14.12 -15.21,-18.71 -14.44,-39.23 0.78,-20.8 6.53,-40.57 9.46,-60.9 0.64,-4.42 5.59,-7.17 9.61,-7.32 3.54,-0.12 7.01,-0.43 10.49,-0.71 -0.42,-1.03 -0.83,-2.07 -0.98,-3.35 -6.19,-51.97 -0.53,-103.64 6.03,-155.3 8.62,-67.79 11.22,-135.76 14,-203.99 2.8,-68.84 5,-137.65 5.68,-206.54 0.31,-30.67 -2.69,-82.67 9.73,-115 -2.62,-0.73 -5.15,-1.57 -7.53,-2.63 -4.42,-1.96 -5.44,-7.41 -4.72,-11.6 2.96,-17.14 0.8,-14.53 5.58,-27.96 0.97,-2.71 3.53,-3.5 5.71,-2.77 -0.07,-32.93 7.37,-66.2 16.04,-97.7 1.51,-5.49 6.49,-9.02 12.07,-9.19 34.8,-1.04 66.57,-12.67 101.52,-5.58 5.42,1.09 8.48,6.47 8.8,11.55 1.28,19.61 12.14,49.02 15.91,76.36 22.35,-9.92 49.74,-14.19 73.57,-7.89 41.88,11.04 83.87,9.35 126.35,5.37 0.89,-13.78 3.19,-27.19 7.34,-40.04 1.72,-22.02 27.18,-39.59 42.39,-52.59 32.23,-27.53 69.96,-52.52 105.05,-76.24 45.6,-30.83 92.32,-60.01 139.22,-88.79 40.87,-25.07 87.85,-57.1 137.02,-59.75 3.28,-0.18 5.31,3.76 3.71,6.46 -19.78,33.14 -56.17,50.55 -86.92,72.48 -39.76,28.35 -82.75,52.55 -124.08,78.52 -67.38,42.34 -135.54,82.99 -202.9,124.52 -1.98,35.17 7.57,69.06 14.72,103.88 8.89,43.24 17.52,86.14 24.51,129.77 17.81,111.15 27.12,223.63 39.53,335.45 24.37,219.46 46.99,433.98 36.94,654.8 23.07,3.97 44.84,14.69 66.37,23.77 4.7,1.98 10.13,4.29 15.68,6.98 8.13,1.32 15.93,3.86 23.12,7.94 2.33,-4.57 4.75,-9.12 6.74,-13.91 2.77,-6.66 5.57,-13.3 8.93,-19.68 16.02,-68.92 55.65,-138.66 79.02,-201.93 36.68,-99.32 73.94,-198.32 109.39,-298.09 36.08,-101.58 74.31,-202.37 110.1,-304.05 16.12,-45.83 30.97,-92.03 46.09,-138.19 5.18,-15.8 12.57,-32.03 19.92,-48.48 3.68,-14.15 7.09,-28.3 9.17,-42.5 8.76,-59.79 -6.91,-107.13 -27.21,-163.26 -38.75,-107.25 -125.86,-192.74 -163.75,-300.15 -0.29,-0.8 0.76,-1.22 1.31,-0.76 41.56,35.54 71.01,86.27 99.55,132.26 34.93,56.27 69.08,113.26 100.56,171.52 21.08,38.99 49.77,89.58 42.83,136.12 0.91,5.31 1.18,10.47 0.79,15.64 2.38,-0.15 4.96,0.42 7.61,2.02 10.27,6.19 24.24,7.63 35.75,10.29 0.12,0.03 0.27,0.07 0.39,0.1 4.03,-22.2 11.01,-44.1 18.16,-65.1 2.57,-7.54 10.81,-13.86 19.15,-10.87 24.49,8.8 46.01,23.39 70.31,32.75 3.82,1.47 6.29,4.24 6.46,8.48 1.18,30.51 7.19,59.47 11.02,88.97 0.31,1.03 0.59,2.05 0.94,3.08 0.68,2.02 0.62,4 0.09,5.84 0.44,3.96 0.92,7.91 1.24,11.89 0.24,0.07 0.49,0.09 0.72,0.2 14.86,6.58 24.64,20.32 39.02,27.74 3.54,1.81 6.78,4.2 9.81,6.91 -0.13,-29.04 0.43,-57.98 2.42,-86.45 -3.69,-32.35 -6.23,-64.83 -9.56,-95.88 -8.12,-75.68 -16.87,-151.13 -21.7,-227.12 -9.33,-146.8 -0.19,-298.31 16.01,-444.36 15.78,-142.153 43.7,-282.68 86.44,-419.223 35.35,-112.903 70.97,-219.536 136.82,-315.411 -13.49,-2.558 -27.48,-7.199 -42.11,-10.324 -46.98,-10.027 -94.47,-22.637 -138.44,-42.297 -17.66,-7.898 -81.84,-33.465 -110.59,-63.199 -3.06,9.277 -8.16,18.184 -14.04,26.817 -3.04,6.675 -6.49,13.164 -10.32,19.343 -5.13,47.032 -31.98,92.774 -50.87,134.832 -26.94,60.024 -52.46,120.766 -80.49,180.266 -19.01,40.359 -39.47,80.059 -61.7,118.691 52.61,-37.968 115.15,-70.742 177.68,-85.937 1.34,-0.32 1.97,1.394 0.91,2.148 -52.85,37.239 -108.06,70.535 -159.81,109.5 -24.04,18.11 -47.05,37.871 -70.55,56.914 -11.31,16.645 -23.1,32.953 -35.28,48.989 69.7,-42.075 143.09,-77.969 217.11,-107.786 0.63,-0.246 1.04,0.774 0.45,1.075 -112.04,57.668 -207.05,147.453 -314.34,214.425 -58.98,52.45 -128.24,92 -206.37,109.187 -59.25,13.04 -133.96,16.9 -194.83,-5.87 -33.05,-3.406 -60.73,-14.078 -85.48,-29.91 -17.51,-8.758 -33.9,-20.625 -50.57,-32.188 -41.19,-28.574 -80.17,-60.41 -118.91,-92.168 -71.59,-58.699 -146.73,-115.09 -201.3,-190.691 -0.78,-1.094 0.96,-2.403 1.85,-1.426 30.25,33.563 71.06,52.703 107.33,78.699 34.77,24.922 67.88,51.887 100.94,78.992 13.7,11.243 27.78,22.004 41.99,32.59 -15.88,-21.679 -31.11,-43.855 -45.78,-66.425 -29.74,-21.258 -56.67,-49.735 -81.17,-72.313 -49.57,-45.684 -90.75,-95.859 -131.31,-149.484 -0.27,-0.364 0.31,-0.782 0.62,-0.469 42.09,42.851 90.03,79.953 135.55,119.109 8.19,7.043 17.09,14.028 26.31,21.074 -16.1,-28.082 -31.56,-56.492 -46.29,-85.132 -47.67,-92.61 -90.31,-188.926 -121.83,-288.235 -13.77,-43.367 -23.94,-87.207 -34.89,-131.25 -5.96,-24.011 -13.44,-50.105 -5.71,-73.879 -17.51,12.649 -36.81,18.266 -58.21,26.028 -11.33,4.113 -22.24,9.277 -32.99,14.812 -1.71,1.606 -3.78,2.727 -6.12,3.196 -25.25,13.398 -49.79,28.418 -76.5,37.265 -33.56,11.113 -86.52,35.969 -130.067,37.742 6.98,7.016 12.894,14.797 17.031,20.989 2.492,3.73 4.762,7.668 6.886,11.699 32.83,32.988 48.36,91.535 62.72,130.422 30.55,82.734 47.53,170.308 58.12,257.617 7.89,64.883 11.27,130.152 12.41,195.469 1.12,7.39 2.11,14.812 2.78,22.324 4.89,55.293 9.35,110.523 8.09,166.063 -1.01,44.26 -6.72,87.75 -15.13,131.15 -3.27,16.82 -7.33,35.92 -13.95,53.65 -20.83,72.97 -54.68,143.41 -64.12,219.67 -11.62,93.86 -19.16,187.86 -22.27,282.25 18.29,-14.04 42.11,-24.08 59.07,-29.13 53.84,-16.02 106.43,-36.89 161.19,-49.49 45.62,-10.48 84.77,-28.07 132.43,-18.35 1.91,0.4 1.84,3.34 0,3.78 -30.11,7.28 -60.43,9.59 -89.96,19.66 -37.44,12.77 -73.23,31.1 -110.68,44.35 -31.79,11.25 -63.05,23.77 -94.35,36.32 -29.85,11.97 -43.02,25.77 -59.03,47.92 -0.04,3.52 -0.15,7.05 -0.19,10.58 -1.19,113.26 13.98,222.34 37.91,332.75 11.28,52.07 27.79,102.19 43.74,152.91 15.4,48.98 24.77,102.96 47.06,149.41 0.78,1.62 -1.31,2.78 -2.35,1.39 -55.62,-74 -91.97,-166.71 -120.88,-255.86 9.54,80.26 25.89,160.95 49.18,238.14 0.33,1.09 -1.22,1.7 -1.79,0.75 -61.14,-102.68 -92.136,-234.36 -88.253,-358.76 -2.742,-2.64 -5.555,-5.4 -8.625,-8.48 -29,-29.01 -59.801,-54.83 -92.586,-79.54 -43.735,-32.96 -108.446,-65.57 -132.981,-116.81 -0.254,-0.53 0.266,-1.07 0.805,-0.8 58.57,29.68 112.266,57.32 165.465,96.71 20.723,15.34 46.18,32.7 68.086,52.82 -8.598,-61.28 -12.457,-123.29 -13.363,-185.3 -1.731,-118.31 12.933,-236.44 29.822,-353.33 12.06,-83.58 33.53,-177.22 75.67,-254.83 1.88,-8.17 3.74,-16.37 5.04,-24.62 8.24,-52.34 14.36,-104.2 16.74,-157.16 0.84,-18.8 1.07,-37.63 1.08,-56.458 -1.22,-9.531 -2.21,-18.75 -2.75,-27.449 -5.38,-86.223 -9.11,-172.324 -21.62,-257.902 -11.58,-79.16 -29.17,-157.715 -53.38,-233.953 -12.66,-39.875 -28.19,-79.321 -46.653,-116.828 -10.348,-21.036 -22.11,-38.516 -27.77,-59.793 -9.301,-15.305 -17.515,-31.133 -22.875,-48.204 -0.394,-1.261 0.457,-2.5 1.637,-2.882 0.336,-0.11 0.676,-0.137 1.016,-0.235 0.488,-2.336 1.773,-4.511 4.027,-6.113 -16.313,-1.875 -32.578,-5.879 -49.223,-9.68 -38.535,-8.777 -73.394,0.95 -109.765,6.078 -6.223,4.969 -12.45,9.539 -18.454,13.536 -43.277,28.789 -97.644,41.796 -148.789,44.773 -86.777,5.039 -217.058,-70.137 -178.843,-173.9766 2.132,-5.789 9.515,-5.7031 11.679,0 2.282,6.0196 4.68,11.8356 7.196,17.4606 24.328,-23.8043 64.418,-26.902 97.179,-27.1285 72.481,-0.4844 145.258,-1.2071 217.391,6.6914 1.508,0.1679 1.508,2.1797 0,2.3437 -55.598,6.125 -111.941,11.9144 -167.801,15.2734 -46.097,2.766 -93.308,4.766 -133.851,27.883 38.535,66.394 98.589,96.961 184.882,82.82 36.598,-5.984 70.215,-19.969 102.598,-37.629 34.281,-18.699 54.453,-52.976 86.875,-73.086 3.828,-2.371 7.504,1.504 6.891,5.293 -3.36,20.696 -14.84,41.035 -29.719,59.243 52.68,-12.883 111.48,-0.708 159.723,26.902 39.769,-12.766 79.899,-24.297 119.679,-37.227 17.54,-5.703 35.13,-10.633 52.68,-15.754 -81.02,-38.933 -172.16,-35.867 -259.16,-58.1129 -0.215,-0.0508 -0.168,-0.3828 0.051,-0.3828 46.308,-0.9922 102.738,-4.5469 157.149,0.0312 -7.95,-7.8125 -10.91,-20 -11.97,-31.4257 -43.961,-0.6719 -88.683,-6.4063 -132.289,-8.543 -69.281,-3.3789 -139.043,-5.0781 -208.386,-3.5742 -43.813,0.957 -87.329,6.2382 -131.094,8.2109 -37.797,1.7109 -88.805,-0.7109 -113.871,32.5195 -4.532,6.0078 -13.664,4.1328 -14.196,-3.8476 -4.82,-72.48049 139.594,-72.79299 185.071,-76.68752 88.179,-7.56251 175.75,-5.8711 263.742,2.91015 55.109,5.50777 135.713,3.76957 178.123,44.82027 1.42,1.3711 0.46,3.4883 -1.26,3.8711 16.96,8.6289 23.68,-8.7929 42.95,-14.8554 20.71,-6.5235 41.04,-3.7227 61.95,0.4804 26.22,5.2735 86.26,21.1407 96.17,52.8789 1.29,1.6407 2.24,3.6055 2.65,5.9377 0.51,2.89 0.76,5.449 0.76,7.949 6.7,-1.434 13.45,-2.551 20.27,-3.113 6.03,-7.0315 18.22,-0.469 16.14,9.07 -6.33,28.945 10.12,63.992 18.34,91.379 12.59,41.961 25.15,83.633 40.08,124.93 32.49,89.863 74.27,173.82 120.03,257.492 69.35,126.797 150.11,281.328 269.93,373.164 80.76,28.769 165.74,26.512 248.66,-0.898 100.56,-33.247 181.52,-119.458 244.19,-201.379 61.27,-80.098 108.61,-170.508 150.97,-261.68 22.96,-49.395 44.9,-98.816 70.22,-147.09 21.27,-40.566 39.19,-90.051 66.23,-129.57 5.25,-26.278 14.43,-53.184 22.41,-76.707 5.56,-16.438 29.41,-18.282 37.16,-5.91 5.08,2.628 9.78,5.996 14.32,9.648 -3.62,-13.875 -3.91,-29.238 -3.05,-44.461 1.19,-21.3202 8.94,-64.3007 35.11,-69.4843 18.56,-17.9024 54.1,-20.5742 78.17,-21.4727 19.59,-0.7422 59.43,2.9375 62.34,27.8321 0.03,0.2539 -0.19,0.4687 -0.23,0.7109 0.43,0.4688 0.96,0.8125 1.25,1.5039 25.67,63.6011 44.05,19.6484 53.43,5.0391 4.91,-7.6446 11.79,-13.2422 18.68,-18.9649 13.69,-11.3398 33.82,-16.3867 51.05,-18.2617 66.45,-7.19531 137.11,-4.99218 203.62,-0.92577 67.73,4.13667 135.82,11.99997 202.89,22.25387 29.8,4.5508 83.41,12.1602 92.72,47.2266 0.58,0.8672 1.1,1.8164 1.48,2.8711 29.93,83.4568 -72.13,160.4418 -143.03,174.1598 -57.22,11.075 -108.18,-5.047 -156.45,-29.336 -7.25,-1.921 -14.7,-3.41 -22.73,-3.664 -26.68,-0.847 -55.79,11.977 -80.72,20.254 -17.29,5.742 -38.79,16.899 -60.31,24.028 2.4,4.597 2.39,10.203 -2.29,14.265 -4.36,3.781 -8.77,6.543 -13.24,8.653 -2.89,3.105 -5.92,6.132 -9.06,9.152 -2.86,2.754 -5.83,5.789 -9.01,8.535 -22.01,45.098 -37.52,94.551 -54.45,141.004 -22.87,62.734 -42.65,127.109 -62.42,190.891 -42.76,137.996 -67.19,281.191 -81.77,424.706 -14.38,141.74 -24.02,284.38 -15.73,426.81 4.05,69.51 11.58,138.85 17.38,208.23 3.94,47.13 8.57,99.52 3.99,149.05 5.99,49.69 3.06,101.93 3.45,149 0.84,104 2.16,208 1.13,312 -1.15,115.05 -2.12,233.41 -30.87,344.09 12.52,22.91 27.48,43.59 43.9,63.59 50.11,35.08 98.4,72.5 143.81,113.76 69.76,63.39 128.98,140 188.59,212.72 60.47,73.75 118.48,149.49 176.06,225.5 29.8,39.33 56.39,80.8 84.86,121.07 23.29,32.95 49.24,64.4 68.99,99.65 2.4,0.36 4.6,0.59 6.69,0.84 0.98,0.03 1.92,-0.09 2.92,0.03 1.05,0.13 1.97,0.45 2.82,0.87 3.87,0.8 7.74,2.17 12.46,5.3 12.27,8.13 22.63,18.62 33.16,28.83 11.09,10.76 21.05,21.73 28.69,35.21 4.01,7.06 8.02,14.06 12.59,20.77 2.79,4.09 9.37,20.25 13.77,21.93 13.05,5.01 17.52,22.67 4.4,30.78 -1.68,11.99 -6.09,22.46 -12.52,35.02 -9.94,19.43 -18.26,39.7 -25.91,60.24 9.29,11.36 14.93,26.85 23.39,38.53 5.89,8.13 13.14,14.88 18.54,23.4 1.33,2.12 1.69,4.35 1.77,6.56 35.31,-18.61 84.89,-23.71 119.79,-8.94 -4.25,-13.22 -8.19,-26.59 -11.98,-39.88 -4.14,-14.52 -13.43,-76.85 -25.43,-84.78 -8.03,-5.31 -5.45,-15.32 0.95,-18.73 7.43,-9.89 22.56,-13.9 33.72,-18.23 12.36,-4.79 26.29,-5.53 37.25,-0.25 4.08,-1.12 8.65,0.03 10.9,4.6 16.03,32.61 22.22,72.49 31.85,107.36 7.19,25.98 12.68,52.48 18.84,78.73 2.39,10.17 7.87,23.4 6.89,34.73 46.7,12.75 96.02,42.07 124.95,80.22 9.28,12.27 44.38,68.8 28.63,88.45 -0.48,1.35 -1.1,2.59 -1.85,3.73 18.83,19.67 31.97,44.36 23.17,72.4 -7.31,23.27 -19.03,33.95 -33.13,36.64 22.53,25.61 33.43,62.3 20.3,93.52 -8.04,19.1 -23.1,35.58 -44.15,39.36 17.47,24.28 26.94,53.67 22.52,87.69 -3.49,26.78 -23.18,41.81 -46.48,46.45 19.3,51.1 30.02,106.31 43.76,158.87 35.53,135.94 68.73,272.39 104.85,408.16 75.19,282.67 148.77,565.68 222.95,848.59 10,38.12 19.88,76.27 30,114.35 1.29,4.9 -1.18,8.5 -4.65,10.31 z M 1229.72,105.84 c -38.13,-13.7306 -76.61,-50.965 -117.4,-31.1212 -9.68,4.707 -18.95,12.8476 -29.12,17.6367 39.41,6.414 76.26,18.6285 105.5,41.1605 0.3,0.234 0.52,0.5 0.8,0.742 3.89,-1.328 7.8,-2.539 11.68,-3.965 9.38,-3.445 18.82,-7.078 28.35,-10.477 -1.45,-3.593 -1.76,-7.382 -0.8,-11 -0.02,0.051 -0.05,0.102 -0.08,0.149 0.03,-0.11 0.1,-0.195 0.13,-0.301 0.24,-0.859 0.56,-1.699 0.96,-2.539 -0.01,-0.09 -0.01,-0.187 -0.02,-0.285 z m 1540.6,-61.0744 c -17.17,2.5508 -37.04,-3.3398 -54.5,-2.3047 -21.83,1.3008 -44.88,8.5157 -66.8,8.8086 1.18,19.6758 -8.12,43.9844 -9.84,60.6325 -0.06,0.559 -0.02,1.086 -0.07,1.645 21.16,-16.1056 58.09,-17.8322 81,-19.4064 20.46,-1.4062 43.68,-3.8359 66.41,-3.5156 -11.42,-10.2539 -17.64,-27.1172 -16.2,-45.8594 z m 267.25,150.6834 c -28.1,-16.074 -52.98,-36.511 -72.14,-62.48 -0.37,-0.508 0.34,-1.035 0.8,-0.801 45.43,22.949 92.59,43.555 141.38,58.145 17.39,5.195 35.02,11.933 52.75,18.937 17.3,4.109 35.03,6.895 53.54,7.105 38.93,0.461 76.65,-12.398 105.82,-38.062 5.3,-4.66 9.74,-9.816 13.69,-15.266 -71.61,-32.082 -146.57,-46.379 -225.89,-53.164 -73.19,-6.269 -161.46,-22.6169 -233.61,-7.519 -0.51,0.097 -0.66,-0.567 -0.21,-0.762 75.1,-31.6328 171.19,-14.0547 250.68,-10.9375 70.51,2.7539 161.41,4.1016 227.9,38.2935 5.09,-10.918 10.09,-21.848 16.43,-31.9263 -42.62,-34.6484 -116.64,-34.3047 -168.14,-40.3008 -78.64,-9.1718 -154.55,-5.8046 -233.28,-2.9336 -28.58,1.0391 -55.53,-0.0468 -83.61,6.9844 -23.17,5.8086 -30.48,28.3985 -50.64,36.2696 -0.08,0.0312 -0.15,0.039 -0.21,0.0703 3.68,1.1523 7.37,2.3007 10.86,3.8434 1.04,0.473 0.53,2.317 -0.6,2.192 -68.67,-7.4339 -137.57,17.722 -203.07,34.246 1.48,12.16 3.32,23.801 1.27,35.605 20.39,11.375 41.64,20.938 62.32,31.907 35.42,18.804 72.66,32.39 111.69,41.14 27.73,6.223 57.69,3.621 86.01,7.078 29.69,-23.922 84.96,-48.75 136.26,-57.664 z M 2280.14,3293.5 c 11.29,-24.48 19.22,-56.57 26.16,-74.21 23.68,-60.17 35.63,-123.99 55.83,-185.22 42.71,-129.39 70.22,-264.83 95.58,-398.62 -34.55,-1.04 -68.78,-5.97 -103.18,-9.93 -0.65,53.22 -16.91,103.68 -26.15,155.74 -11.54,64.91 -25.83,129.2 -39.63,193.66 -14.27,66.72 -29.18,133.93 -50.59,198.75 -13.79,41.79 -27.45,88.73 -51.35,127.13 -4.16,29.91 -7.26,60.02 -12.97,89.63 36.11,-31.26 70,-66.41 106.3,-96.93 z m 240.7,-986.34 c 19.41,-139.87 36.7,-282.55 63.59,-421.23 -8.04,-3.8 -15.66,-8.09 -21.81,-10.62 -15.14,-6.24 -29.91,-13.92 -44.11,-22.47 -15.37,37.27 -13.41,87.5 -22.22,126.05 -17.02,74.32 -32.54,148.99 -47.76,223.7 -14.76,72.51 -27.86,145.5 -44.21,217.66 -4.05,17.91 -7.83,35.77 -12.35,53.57 -1.86,7.31 -4.47,14.44 -6.54,21.71 -0.68,2.43 -1.9,3.1 -3.02,2.84 -0.01,0.02 -0.01,0.04 -0.02,0.05 37.34,0.45 74.42,4.82 111.75,6.42 -10.48,-33.26 25.12,-186.32 26.7,-197.68 z m -149.04,210 c -3.78,7.06 -10.3,13.36 -13.37,21.06 -8.82,22.15 -7.75,46.82 -15.91,68.65 -0.18,0.49 -0.54,0.77 -0.86,1.11 45.43,2.75 90.77,9.52 136.31,8.2 2.97,-31.6 7.56,-62.53 15.3,-93.15 -40.56,-0.34 -80.97,-3.8 -121.47,-5.87 z m -259.52,936.09 c 4.59,-9.8 9.32,-19.58 14.36,-29.5 27.61,-54.21 40,-106.54 49.08,-166.34 15,-98.69 7.36,-198.95 11.47,-297.89 -20.23,66.04 -54.96,128.88 -94.91,184.38 -14.44,20.06 -42.14,56.53 -71.75,71.03 9.04,6.04 17.25,14.73 25.08,26.59 12.54,18.98 17.16,43.4 18.93,67.53 7.88,21.34 14.75,42.57 21.59,61.09 7.98,21.63 20.22,52.55 26.15,83.11 z m -97.98,-186.09 c -4.69,-8.75 -9.19,-16.73 -16.64,-24.45 -8.25,-8.55 -18.31,-14.5 -27.64,-21.69 -36.9,12.36 -84.57,-9.16 -118.53,-21.59 -27.11,-9.94 -51.74,-21.44 -73.27,-37.65 -0.14,0.35 -0.21,0.73 -0.41,1.03 -14.19,21.43 -39.47,26.6 -59.45,42.99 -28.18,23.13 -58.11,44.08 -86.06,67.57 -37.94,31.86 -53.79,88.01 -84.99,126.63 54.91,-16.62 113.08,-25.87 173.68,-27.71 128.45,-3.9 248.42,32.32 345.72,106.8 -2.4,-27.52 -5.32,-54.74 -10.97,-82.28 -8.57,-41.67 -29.88,-86.03 -41.44,-129.65 z m 394.06,965.93 c 33.8,-33.13 35.37,-79.2 27.91,-123.05 -6.91,-40.65 -25.43,-80.15 -51.08,-112.3 -16.46,-20.63 -57.6,-53.82 -84.1,-32.76 -0.88,0.7 -1.82,1.11 -2.73,1.67 0.84,11.93 1.36,23.83 1.48,35.63 5.57,16.74 7.95,34.23 10.66,52.2 0.36,2.4 0.98,4.73 1.49,7.09 14.04,-18.39 40.9,-31.09 57.33,-10.35 0.23,0.3 0.03,0.75 -0.38,0.66 -30.31,-7.06 -47.06,24.21 -46.32,49.51 0.01,0.39 0.07,0.77 0.09,1.16 0.39,1.8 0.9,3.58 1.2,5.4 2.96,17.64 4.52,38.91 16.07,53.46 26.37,33.24 62,-17.28 61.36,-44.63 -0.01,-0.55 0.85,-0.84 1.1,-0.3 12.69,29.19 15.94,53.52 -8.14,77.92 -20.34,20.64 -59.61,21.24 -81.12,3.1 -4.79,-4.02 -8.8,-8.63 -12.44,-13.48 -0.12,10.85 -0.43,21.72 -1.13,32.52 0.88,1.33 1.58,2.87 1.72,4.86 1.04,14.24 2.46,28.31 3.98,42.31 13.4,11.38 30.74,10.99 47.88,5.04 3.51,-2.41 7.57,-4.16 11.85,-4.96 17.44,-8.45 33.5,-21.07 43.32,-30.7 z m -154.16,546.52 c 41.41,-43.93 74.75,-96.35 95.41,-153.04 4.53,-12.41 8.21,-25.05 11.34,-37.82 -19.2,32.11 -43.12,61.46 -70.71,84.26 -1.1,0.91 -3.15,-0.33 -2.15,-1.66 36.74,-48.81 64.82,-100.75 82.73,-159.36 0.97,-3.19 1.64,-6.35 2.5,-9.53 0.45,-7.92 0.78,-15.84 0.94,-23.77 -15.29,42.7 -37.54,82.63 -68.48,115.97 -0.45,0.49 -1.27,-0.14 -0.92,-0.71 25.92,-41.4 44.83,-85.89 57.21,-133.1 7.91,-30.16 5.73,-63.76 7.76,-95.58 -3.46,-22.09 -9.81,-43.13 -21.35,-60.75 -14.99,0.36 -29.24,-2.39 -39.71,-9.5 3.09,28.37 5.78,56.75 5.69,86 -0.18,58.71 -5.45,117.16 -13.34,175.3 -11.06,81.36 -31,161.11 -61.21,237.16 4.98,-4.55 9.84,-9.14 14.29,-13.87 z m -166.63,-305.18 c -2.57,-6.19 -5.7,-12.5 -9.13,-18.82 -7.43,-6.22 -12.67,-17.2 -17.34,-27.86 -9.27,-13.2 -19.42,-25.65 -29.36,-36.1 -7.13,-7.49 -15.04,-13.95 -23.3,-20.02 -23.32,-11.68 -50.43,-17.97 -73.1,-19.5 -36.24,-2.44 -71.03,10.82 -101.45,29.23 -33.84,20.48 -49.84,53.03 -71.49,83.52 0.24,4.6 -1.49,9.28 -5.88,11.58 -28.42,14.86 -78.53,2.4 -107.94,-3.86 -11.64,-2.48 -67.89,-19.97 -52.35,-40.67 -0.8,-1.12 -1.46,-2.39 -1.66,-3.99 -14.84,-115.77 -129.19,-161.37 -225.8,-134.88 -44.51,17.82 -82.21,58.35 -110.01,94.17 -1.61,2.08 -5.67,0.41 -5.34,-2.21 1.12,-8.73 3.15,-16.96 5.87,-24.75 -30.79,-8.36 -57.33,-43.96 -78.05,-65.17 -5.04,-5.15 -25.98,-27.29 -43,-48.51 -1.95,16.75 -3.42,33.58 -4.23,50.44 30.56,45.24 66.44,86.49 117.72,110.06 7.55,3.48 7.16,11.68 3.01,16.96 -1.23,2.25 -2.53,4.47 -3.87,6.66 -0.69,10.93 -1.19,21.31 -1.32,31.29 0.61,6.47 1.04,13.02 1.83,19.64 1.51,12.66 2.51,25.43 4.69,38.01 2.78,10.05 6.57,20.33 11.8,31.17 21.91,45.47 57.09,83.61 104.2,102.84 112.69,46.02 191.44,-51.03 215.58,-148.62 3.03,-12.22 21.83,-11.39 24.62,-0.72 16.19,3.71 32.46,7.2 48.78,10.16 13.75,2.49 27.02,2.49 40.88,2.51 11.12,0.02 18.81,-7.15 29.4,-7.27 6.1,-0.08 12.78,5.58 12.11,12.11 0,0.02 -0.01,0.05 -0.01,0.07 0.22,0.83 0.41,1.67 0.35,2.61 -6.78,104.78 70.61,190.04 173.68,203.51 48.2,6.29 96.42,-14.41 131.42,-46.31 28.8,-26.25 44.35,-59.8 50.67,-95.64 0.09,-0.86 0.24,-1.69 0.3,-2.55 1.66,-24.61 -0.45,-49.51 -1.8,-74.11 -6.49,-6.66 -6.33,-19.46 5.29,-21.85 37.25,-7.66 72.35,-21.43 105.15,-40.61 25.65,-14.99 44.5,-38.57 67.14,-56.13 0.25,-5 0.49,-10 0.71,-15.01 -25.57,20.5 -64.97,33.17 -88.67,43.49 -27.9,12.15 -63.64,30.14 -94.43,35.05 0.66,6.29 1.04,12.66 0.86,19.19 -0.12,3.99 -5.14,4.21 -6.53,0.89 z m -970.64,77.04 c -21.38,-24.18 -46.6,-55.38 -67.39,-89.7 5.07,23.77 11.99,47.46 21.1,71.12 18.09,47.02 46.9,90.27 78.04,129.52 5.56,7.02 11.53,13.84 17.62,20.62 -25.37,-100.34 -34.27,-205.53 -31.83,-314.1 0.04,-1.8 2.55,-1.71 2.74,0 21.43,194.66 70.74,385.96 182.02,549.49 103.29,151.79 270.17,269 460.77,238.41 183.48,-29.45 313.6,-182.22 391.27,-340.58 42.14,-85.92 71.13,-177.34 88.41,-271.35 6.72,-36.55 10.67,-73.7 13.34,-111.06 -13.91,11.1 -29.7,20.5 -42.35,28.59 -33.3,21.3 -70.92,39.24 -109.67,48.37 -1.14,21.6 -2.4,43.48 -5.8,64.83 -0.56,3.51 -1.34,6.98 -2.2,10.44 -1,33.94 -8.82,66.97 -30.05,93.52 -38.74,48.45 -91.39,70.86 -152.45,74.8 -98.23,6.33 -235.05,-102.22 -213.3,-208.96 -29.72,2.9 -77.44,-16.84 -105.49,-30.43 -15.96,115.64 -117.76,195.97 -234.19,167.21 -56.25,-13.9 -95.39,-58.78 -120.23,-108.53 -5.59,-11.18 -11.11,-25.17 -15.49,-40.26 -14.82,-29.63 -22.72,-66.86 -10.82,-92.64 -1.1,-6.48 -1.43,-12.95 -0.12,-18.76 -36.78,-22.62 -75.32,-60.15 -97.44,-101.46 -0.1,11.67 0.03,23.33 0.71,34.96 0.07,1.13 -1.61,1.28 -1.92,0.26 -9.95,-32.72 -14.9,-64.13 -18.14,-98.17 -0.87,-9.07 -1.84,-18.6 -2.51,-28.24 -19.04,12.15 -39.72,15.4 -62.42,12.97 -0.12,0.73 -0.25,1.45 -0.37,2.18 16.43,29.59 13.81,69.07 20.81,101.55 8.26,38.33 25.32,71.73 37.51,108.49 0.27,0.82 -0.75,1.19 -1.31,0.76 -23.34,-18.25 -46.33,-53.27 -60.71,-91.43 2.28,16.04 4.68,32.07 8.93,47.62 13.16,48.18 37.14,97.23 63.23,139.72 0.11,0.19 -0.16,0.41 -0.3,0.24 z m -65.84,-665.06 c -31.79,26.85 -53.277,64.08 -66.074,103.09 -26.407,80.48 -9.118,156.39 50.364,205.16 17.6,3.92 38.09,3.66 52.55,-8.37 15.09,-12.58 18.62,-25.45 29.45,-41.38 1,-1.46 2.76,-1.64 4.02,-0.66 -1.67,-14.97 -2.54,-29.92 -2.93,-44.86 -0.06,-1 -0.11,-1.99 -0.17,-2.98 -9.03,15.5 -21.7,28.57 -38.55,36.69 -30.5,14.67 -63.05,-0.22 -80.16,-26.8 -18.789,-29.19 -6.668,-61.81 6.82,-89.16 0.34,-0.69 1.51,-0.37 1.46,0.4 -1.43,19.78 3.54,45 8.87,63.83 12.28,43.38 52.58,8.96 63.98,-13.28 1.58,-3.09 2.87,-6.3 4.28,-9.45 -0.27,-11.43 0.9,-23.56 0.46,-33.32 -0.44,-9.71 -2.46,-19.94 -4.89,-29.35 -3.1,-11.99 -10.93,-15.36 -18.53,-23.39 -1.67,-1.76 -0.87,-4.47 1.38,-5.22 17.84,-5.95 34.1,16.04 41.33,32.48 5.03,-19.08 9.79,-38.24 15.82,-56.86 2.77,-25.84 6.85,-51.71 12.76,-77.93 -30.71,-6.57 -54.3,-2.24 -82.24,21.36 z m 256.62,-265.28 c -52.25,62.51 -95.75,139.48 -127.79,221.26 -8.92,36.59 -17.01,73.4 -24.28,110.56 -12.97,66.36 -16.93,133.91 -27.67,200.59 2.08,0.04 4.14,1.01 5.22,3.01 9.72,18.1 10.31,38.08 8.61,58.18 21.36,19.93 35.63,52.4 55.29,71.86 13.64,13.5 27.3,26.86 43.57,37.2 9.73,6.17 21.18,7.19 30.75,11.61 11.46,-17.61 27.38,-31.5 45.88,-41 38.92,-34.65 95.75,-44.56 149.53,-35.17 9.8,1.72 19.25,4.29 28.34,7.56 -7.52,-13.66 -12.35,-28.88 -13.09,-46.04 -3.98,-93.33 77.39,-153.3 164.82,-152.39 67.46,0.69 189.28,45.7 184.72,128.9 -0.18,3.16 -3.95,5 -6.33,2.62 -44.46,-44.2 -85.37,-69.9 -149.52,-77.01 -64.26,-7.11 -153.6,20.78 -138.92,103.15 9.53,53.49 73.17,76.14 117.91,91.67 48.49,16.83 104.12,25.68 150.9,-1.07 1.13,-0.65 2.77,0.42 2.3,1.76 -23.52,66.55 -109.81,55.08 -164.65,40.83 -18.87,-4.9 -39.59,-11.67 -59.74,-20.58 16.39,26.26 26.16,56.92 27.03,89.31 0.04,1.63 -0.36,2.9 -0.93,4 33.7,28.52 92.96,26.18 135.12,21.46 10.1,-68.72 93.2,-121.02 156.31,-128.7 37.46,-4.56 73.91,0.32 107.3,17 12.54,4.9 24.76,12.48 37.15,23.19 24.05,20.8 39.46,46.59 45.58,75.61 14.25,-12.66 49.2,-21.75 58.59,-25.52 25.37,-10.19 47.49,-22.38 70.86,-36.57 19.41,-11.79 36.74,-32.37 57.32,-42.43 1.33,-38.42 2.43,-76.74 4.69,-114.58 0.11,-1.77 0.63,-3.19 1.33,-4.44 -6.78,-61.18 -8.95,-122.56 -13.3,-184.12 -2.98,-42.12 -9.73,-83.4 -17.66,-124.45 -3.79,-15.09 -7.81,-30.2 -11.72,-45.53 -21.17,-82.86 -56.82,-163.52 -104.18,-234.67 -91.54,-137.53 -237.8,-199.94 -399.24,-202.94 -169.16,-3.15 -322.11,66.66 -430.1,195.88 z m 228.43,-348.97 c 5.84,10.88 12.02,21.7 17.93,32.64 7.73,-10.41 16.03,-19.44 24.79,-26.11 32,-24.35 65.3,-47.6 96.31,-73.21 25.32,-20.91 42.39,-45.64 72.97,-59.82 3.35,-1.55 6.51,-2.11 9.59,-2.03 -2.06,-2.11 -4.16,-4.15 -6.13,-6.4 -52.55,-22.77 -74.33,-83.92 -92.25,-137.68 -16.65,-49.97 -36.52,-106.93 -44.55,-163.18 -7.32,42.24 -24.76,84.15 -37.49,123.72 -16.88,52.51 -33.42,104.9 -47.02,158.05 -1.32,16.8 -2.14,33.72 -1.61,51.15 1.05,34.41 5.37,68.6 7.46,102.87 z m -145.83,-642.87 c 1.47,63.72 1.87,127.13 5.67,190.81 3.57,59.55 7.91,119.02 9.95,178.65 1.03,30.28 0.46,60.57 1.08,90.86 0.38,18.73 4.51,36.64 7.53,54.72 24.19,25.55 50.88,49.46 78.17,62.84 -2.03,-32.17 3.02,-65.85 12.58,-97.21 0.06,-26.37 2.22,-52.96 0.98,-79.42 -2.95,-62.63 -1.7,-125.45 -2.72,-188.13 -1.84,-112.74 -22.49,-231.97 0.37,-343.78 -12.46,-3.18 -24.05,-5.13 -37.83,-6.44 -27.93,-2.67 -55.48,-4.61 -83.18,-8.36 12.15,46.28 6.3,97.97 7.4,145.46 z m 22.52,-608.89 c -2.35,112.73 -0.56,228.47 -13.9,340.48 -0.07,0.62 -0.34,1.07 -0.48,1.63 9.84,-0.95 19.72,-1.65 30.03,-1.07 21.79,1.22 43,5.35 63.93,11.38 2.46,0.72 4.89,1.43 7.31,2.16 -2.48,-1.82 -4.26,-4.65 -4.3,-8.73 -0.58,-62.59 6.9,-124.01 13.4,-185.95 -5.75,-106.54 4.72,-214.3 10.5,-320.46 2.54,-46.73 6.28,-93.38 6.6,-140.17 0.07,-10.26 -1.53,-26.6 0.43,-40.8 -18.09,4.07 -38.18,3.57 -55.82,3.76 -12.01,0.12 -26.7,1.18 -40.46,0.06 -6.12,15.56 -4.3,42.44 -5.79,57.6 -3.01,30.52 -4.52,60.92 -5.78,91.53 -2.58,62.87 -4.36,125.68 -5.67,188.58 z m 115.76,-476.05 c -25.67,-3.89 -51.46,4.72 -77.26,7.92 -5.46,23.07 -9.94,46.71 -16.83,69.45 1.11,-0.09 2.26,0.22 3.2,1.19 4.94,5.09 29.77,1.7 38.61,0.4 12.43,-1.83 29.01,-3.7 41.61,-9.14 -2.71,-16.67 4.63,-36.13 7.47,-51.69 0.52,-2.91 3.74,-3.71 6.13,-2.71 -1.2,-5.55 -2.22,-10.74 -2.93,-15.42 z m -23.07,90.86 c -16.84,3.51 -63.6,15.72 -73.72,-4.98 -2.77,8.24 -5.9,16.35 -9.65,24.2 -0.48,1.01 -1.17,1.61 -1.94,1.95 0.04,0.32 0.11,0.74 0.15,1.09 32.72,-2.72 65.79,1.14 98.68,-6.15 14.43,-3.21 20.05,-14.15 21.28,-28.32 -7.27,8.96 -25.11,10.19 -34.8,12.21 z m 355.79,836.6 c -9.04,-116.8 -24.2,-233.05 -37.13,-349.45 -12.93,-116.46 -23.69,-233.14 -36.96,-349.57 -4.95,-43.44 -18.79,-93.97 -20.25,-142.03 -33.37,-1.93 -66.16,-9.69 -99.59,-12.11 -32.54,-2.34 -66.11,7.14 -98.75,8.03 0.15,17.59 -4.49,33.12 -19.09,42.94 -7.17,22.27 -5.22,49.37 -6.24,72.12 -2.05,45.68 -9.16,91.25 -12.82,136.85 -8.34,103.8 -5.14,208.55 -13.08,312.35 3.24,58.44 3.36,116.5 0.86,175.31 -0.31,7.34 -6.01,11.03 -11.63,11.03 8.88,3.25 16.89,7.66 22.51,15.88 4.37,6.38 1.68,20.43 0.13,27.2 -4.15,18.21 -6.5,35.99 -8.22,54.52 -0.11,1.27 -1.91,1.64 -2.3,0.31 -5.09,-17.4 -19.99,-65.8 -8.34,-82.03 1.19,-1.66 -77.11,-16.59 -81.93,-17.05 -12.28,-1.22 -24.61,-1.23 -36.92,-0.51 -18.17,1.06 -10,-2.42 -13.48,15.4 -3.23,16.54 -6.31,32.98 -7.48,49.82 -0.47,6.83 -5.29,23.88 -3.26,30.36 0.08,0.26 -0.01,0.43 -0.04,0.64 1.2,-1.62 3.31,-2.94 5.32,-2.74 22.52,2.17 44.72,4.64 67.08,8.11 13.89,2.15 27.77,3.86 41.78,5.08 5.68,0.48 11.36,0.87 17.05,1.18 1.88,0.1 3.32,-0.16 4.46,-0.61 -0.3,1.42 -0.58,3.05 -0.79,5.15 1.45,-14.14 23.73,-14.28 22.26,0 -0.8,7.81 -7.68,14.07 -15.93,11.81 -0.1,-0.03 -0.2,-0.05 -0.3,-0.08 9.33,49.18 6.38,101 8.63,150.87 2.9,64.03 9.47,127.72 11.05,191.82 1.27,51.79 0.88,103.59 1.96,155.36 22.43,-79.88 46.75,-159.64 77.36,-236.54 0.9,-2.25 3.79,-3.19 5.54,-1.95 0.63,-5.41 1.44,-10.78 2.47,-16.1 0.14,-0.74 1.37,-0.76 1.5,0 12.26,69.44 39.1,136.52 57.8,204.71 3.16,11.53 6.73,25.63 10.86,40.84 12.76,-29.52 41.39,-56.66 59.18,-78.3 22.2,-27.02 45.67,-52.54 71.26,-76.37 11.63,-10.82 34.32,-35.4 54.22,-40.72 -4.1,-107.23 -0.45,-214.38 -8.75,-321.53 z m 153.13,403.26 c -4.22,-5.29 -9.75,-9.02 -15.8,-11.96 -34.75,-11.69 -68.77,-25.34 -103.52,-37.04 -1.92,1.05 -4.05,1.68 -6.23,1.92 -16.21,19.97 -47.64,41.42 -53.41,46.83 -49.09,46.06 -103.86,102.7 -135.36,162.32 11.98,34.6 27.9,68.36 50.09,88.94 37.72,11.48 73.01,27.31 110.28,40.7 36.92,13.27 79.59,18.38 113.73,38.4 2.58,-0.3 4.99,-0.3 7.46,-0.39 20.16,-9.26 37.91,-25.29 53.63,-44.12 -27.16,-74.9 -13.83,-176.16 -8.12,-254.6 -2.01,-11.48 -5.73,-22.19 -12.75,-31 z M 2492.7,1835.91 c -3.88,-2.84 -5.57,-8.59 -1.58,-12.28 0.85,-0.78 1.7,-1.57 2.55,-2.35 -0.63,-6.69 -0.92,-13.38 -0.69,-20.08 -2.89,-0.81 -5.66,-1.64 -8.15,-2.36 -12.63,-3.66 -27.11,-6.63 -38.15,-14.12 -0.09,-0.07 -0.15,-0.15 -0.25,-0.22 -1.05,2.73 -2.19,5.49 -3.48,8.38 -21.43,47.6 -38.85,95.6 -55.39,145.12 -36.04,107.91 -77.66,214.2 -119.05,320.14 -38.8,99.34 -75.3,199.35 -116.52,297.73 -38.13,91 -85.23,179.12 -120.18,271.15 -0.28,7.36 -0.74,14.78 -1.06,22 -0.09,1.92 -0.51,3.53 -1.07,4.98 18.47,26.32 13.53,56.16 7.69,85.73 7.7,44.36 15.77,88.33 22.04,133.51 1.6,11.58 5.55,27 7.79,42.57 9.98,-15.89 18.99,-31.59 27.14,-45.22 30.8,-51.54 51.82,-107.36 95.21,-150.09 0.21,-2.71 0.38,-5.42 0.62,-8.12 0.24,-2.71 4.28,-3.63 4.99,-0.67 22.88,95.16 28.85,190.43 12.08,285.82 4.15,-9.76 8.15,-19.48 11.73,-29.15 21.63,-58.51 37.34,-118.42 51.09,-179.18 13.36,-59.04 26.55,-118.22 37.67,-177.72 11.45,-61.27 30.22,-123.94 34.31,-186.12 0.03,-0.46 0.21,-0.79 0.31,-1.19 -1.02,-0.12 -2.02,-0.23 -3.04,-0.34 -9.23,-0.95 -10.2,-13.95 -2.3,-15.69 -0.35,-0.37 -0.72,-0.7 -0.9,-1.27 -4.9,-15.41 0.24,-34.42 2.96,-49.98 2.11,-12.11 5.48,-23.89 10.09,-35.27 1.7,-4.18 7.38,-9.78 7.22,-13.96 -0.17,-5.08 4.31,-9.03 9.15,-9.15 3.3,-0.08 6.6,-0.04 9.9,-0.05 -1.34,-1.17 -2.31,-2.83 -2.15,-4.58 9.32,-111.3 41.48,-224.19 63.35,-333.58 14.3,-71.59 30.63,-142.83 44.53,-214.49 6.46,-33.34 5.45,-72.77 19.33,-104.56 -2.6,-1.79 -5.26,-3.5 -7.79,-5.34 z m 104.84,-86.78 c -2.59,-5.26 -26.18,-7.7 -30.51,-9.16 -9.06,-3.03 -17.85,-6.32 -26.79,-9.29 -5.22,17.27 -11.92,34.11 -18.45,51 14.56,9.26 29.6,17.93 45.58,24.48 11.62,4.78 23.92,7.43 35.8,11.22 1.58,-10.33 1.83,-21.44 3.42,-31.25 0.22,-1.36 2.23,-1.46 2.85,-0.37 1.14,2.04 2.09,4.06 2.94,6.1 -3.43,-14.96 -8.31,-29.52 -14.84,-42.73 z m 21.19,91.73 c -2.05,1.75 -4.64,2.86 -7.37,2.91 -20.23,0.38 -40.5,-9.36 -58.52,-17.7 -11.69,-5.43 -23.03,-12.33 -31.95,-21.56 -2.45,0.45 -5.03,0.62 -7.72,0.5 -2.46,7.04 -4.73,14.14 -6.73,21.32 1.21,0.83 2.51,1.53 3.75,2.31 4.86,-1.09 10.34,1.96 12.39,6.7 18.18,8.46 38.55,13.4 56.75,20.23 11.05,4.14 21.78,8.74 32.38,13.83 4.72,2.27 6.65,-2.49 7.29,-9.13 -1.07,-1.5 -2.05,-3.04 -2.94,-4.63 -2.11,-3.79 -0.09,-7.19 3.06,-8.39 -0.11,-2.33 -0.25,-4.51 -0.39,-6.39 z m 866.15,1782.73 c -0.5,-2.46 -0.56,-5.07 0.44,-7.83 6.28,-17.44 -45.24,-56.41 -56.06,-67.86 -8.9,-9.42 -18.74,-17.93 -27.24,-27.69 -1.51,1.86 -3.21,3.87 -5.25,6.31 -19.68,23.5 -36.03,48.64 -50.97,75.36 -25.42,45.5 -45.23,96.69 -65.16,144.87 -0.38,0.94 -1.65,0.59 -1.5,-0.42 8.16,-55.24 19.51,-106.97 42.29,-158.69 10.96,-24.87 33.29,-82.04 64.99,-94.41 -56.46,-55.4 -111.56,-109.81 -160.13,-173.08 -63.58,-82.79 -126.46,-166 -192.35,-246.99 -59.8,-73.5 -120.83,-146.42 -188.26,-213.04 -22.27,-22.01 -45.68,-42.86 -69.05,-63.73 -22.26,-14.75 -44.6,-29.44 -66.58,-44.89 -8.04,-5.65 -19.25,-16.61 -29.46,-29.77 -1.43,-0.68 -2.87,-1.34 -4.39,-1.85 -7.34,-2.49 -7.77,3.82 -12.55,7.72 -0.31,0.25 -0.72,0.37 -1.09,0.58 -12.54,31.21 -27.99,61.55 -47.09,90.73 -0.7,1.06 -2.58,0.41 -2.15,-0.91 54.84,-165.5 64.34,-335.06 65.64,-508.27 0.68,-90.91 -1.4,-181.82 -2.51,-272.72 -0.29,-23.78 -1,-47.98 -1.69,-72.34 -4.82,-12.38 -8.22,-25.89 -13.65,-36.47 -6.25,-12.15 -14.97,-23.36 -19.43,-36.43 -3.25,-9.54 -10.55,-16.88 -17.15,-24.57 0.06,5.84 -0.03,11.72 -0.41,17.68 -0.24,3.6 -2.25,6.46 -5.76,7.55 -5.31,1.65 -11.14,1.18 -17.09,-0.26 -24.3,113.37 -33.69,231.59 -50.39,346.21 -8.85,60.81 -17.13,121.91 -28.62,182.28 -1.48,7.8 -15.87,54.35 -19.51,74.89 4.55,-2.86 11.98,0.61 10.32,7.36 -0.65,2.66 -1.2,5.34 -1.8,8.02 1.23,3.38 0.49,7.38 -2.09,9.88 -6.76,34.42 -9.45,70.1 -12.65,104.85 -0.5,5.47 -4.05,9.46 -9.72,9.72 -3.99,0.18 -7.97,0.19 -11.95,0.23 -0.01,0.17 0.07,0.3 0.05,0.48 -17.92,148.7 -59.37,296.23 -93.76,442.01 -14.55,61.67 -27.91,128.95 -60.41,184.45 38.72,-26.07 81.52,-44.38 133.09,-46.25 64.99,-2.36 130.61,23.66 189.55,47.83 67.46,27.66 131.94,60.07 193.75,98.78 120.55,75.47 225.87,173.97 323.06,277.05 77.18,81.87 150.33,169.88 211.49,265.04 4.98,-38.84 20.48,-80.4 28.47,-105.62 11.41,-35.99 27.47,-70.77 42.8,-105.22 11.33,-25.44 21.68,-52.44 41.93,-70.57 z m 197.64,133.44 c -7.71,-34.01 -18.26,-73.26 -20,-109.09 -7.89,0.08 -15.74,0.3 -23.39,2.33 -4.79,1.25 -15.44,3.95 -20.67,7.43 0.02,1.03 -0.06,2.07 -0.42,3.02 -10.91,28.73 29.35,84.53 38.57,114.42 7.28,23.57 16.3,46.96 23.41,70.54 6.56,-0.56 13.3,-0.5 20.13,0.06 -10.74,-28.05 -13.76,-71.64 -17.63,-88.71 z m 148.42,752.88 c -9.6,-35.58 -20.33,-71.25 -26.01,-107.7 -5.28,-0.71 -10.5,-1.82 -15.54,-3.47 9.49,18.82 14.46,39.96 15.02,62.39 48.99,174.08 103.7,351.13 150.98,526.76 75.69,281.24 154.91,561.55 228.85,843.25 8.72,33.24 15.49,66.76 23.43,100.15 0.91,-1.97 2.11,-3.82 3.97,-5.68 0.39,-0.39 0.9,-0.56 1.33,-0.88 -125.41,-472.11 -254.87,-943.19 -382.03,-1414.82" /><path
         id="path182"
         style="fill:#000000;fill-opacity:1;fill-rule:nonzero;stroke:none"
         d="m 2094.98,4200.62 c 10.04,-18.57 22.64,-32.82 26.59,-54.71 1.48,-8.25 10.48,-42.62 24.79,-28.31 29.2,29.2 -9.04,102.87 -49.39,95.41 -2.08,-0.39 -3.82,-2.4 -4.36,-4.36 -0.66,-1.26 -1.32,-2.52 -1.99,-3.79 -0.64,-0.8 -0.77,-2.25 0.35,-2.77 1.76,-0.8 2.9,-1.24 4.01,-1.47" /><path
         id="path184"
         style="fill:#000000;fill-opacity:1;fill-rule:nonzero;stroke:none"
         d="m 1377.87,3971.16 c 0.42,9.86 6.04,20.26 5.24,29.63 -0.13,1.5 -0.74,3.19 -2.23,3.88 -15.67,7.33 -37.02,-14.03 -39.9,-28.52 -4.75,-23.92 -2.91,-55.72 21.05,-68.79 22.78,-12.44 23.94,16.14 19.99,30.32 -3.38,12.15 -4.69,20.96 -4.15,33.48" /></g></g></svg>